<svg width="26" height="26" viewBox="0 0 26 26" fill="none" xmlns="http://www.w3.org/2000/svg">
<path fill-rule="evenodd" clip-rule="evenodd" d="M2 8.455C2 4.88983 4.8896 2 8.454 2H17.545C21.1102 2 24 4.8896 24 8.454V17.545C24 21.1102 21.1104 24 17.546 24H8.455C4.88983 24 2 21.1104 2 17.546V8.455ZM8.454 4C5.9944 4 4 5.99417 4 8.455V17.546C4 20.0056 5.99417 22 8.455 22H17.546C20.0056 22 22 20.0058 22 17.545V8.454C22 5.9944 20.0058 4 17.545 4H8.454ZM13 9C10.7909 9 9 10.7909 9 13C9 15.2091 10.7909 17 13 17C15.2091 17 17 15.2091 17 13C17 10.7909 15.2091 9 13 9ZM7 13C7 9.68629 9.68629 7 13 7C16.3137 7 19 9.68629 19 13C19 16.3137 16.3137 19 13 19C9.68629 19 7 16.3137 7 13ZM19.818 7.09064C19.818 7.59267 19.411 7.99964 18.909 7.99964C18.407 7.99964 18 7.59267 18 7.09064C18 6.58861 18.407 6.18164 18.909 6.18164C19.411 6.18164 19.818 6.58861 19.818 7.09064Z" fill="white"/>
</svg>
