<svg width="950" height="728" viewBox="0 0 950 728" fill="none" xmlns="http://www.w3.org/2000/svg">
<g opacity="0.15" clip-path="url(#clip0_3214_16827)">
<path d="M327.98 290.1C328.51 261.92 329.03 233.74 329.58 205.56C329.63 203.15 329.69 200.71 330.02 198.33C330.91 191.88 333.62 188.69 340.16 187.62C360.28 184.33 380.4 181 400.61 178.35C406.86 177.53 413.52 178.17 419.79 179.3C438.41 182.67 450.93 193.86 456.1 211.85C464.25 240.21 458.53 266.18 439.03 288.42C434.25 293.87 433.3 298.26 435.62 304.86C441.04 320.29 445.77 335.96 450.77 351.54C451.51 353.84 452.37 356.11 452.92 358.45C454.8 366.46 452.08 371.04 444.07 372.49C435.37 374.07 426.6 375.36 417.81 376.4C410.15 377.31 407.68 375.67 405.15 368.36C401.64 358.22 398.38 348 395 337.81C393.06 331.95 391.17 326.08 389.09 320.27C387.09 314.69 386.21 314.29 380.12 315.27C373.73 316.3 372.96 316.88 372.82 322.58C372.52 334.92 372.46 347.27 372.23 359.62C372.14 364.45 372.11 369.3 371.6 374.09C370.9 380.65 368.09 384.03 361.82 385.21C353.4 386.81 344.89 388.13 336.37 389.06C328.78 389.89 326 387.32 326.05 379.47C326.14 365.78 326.82 352.1 326.97 338.41C327.14 322.31 327.01 306.2 327.01 290.09C327.33 290.09 327.65 290.09 327.97 290.09M348.41 300.06C347.86 297.51 347.43 296.49 347.44 295.47C347.77 274.54 348.09 253.61 348.57 232.69C348.69 227.27 349.4 226.5 355.17 225.47C363.88 223.92 372.64 222.68 381.39 221.37C386.96 220.54 392.52 219.46 398.13 219.13C410.32 218.42 418.02 224.95 419.76 236.97C422.3 254.56 411.51 269.66 394.04 272.87C389.82 273.64 385.58 274.56 381.31 274.75C371.05 275.23 366.31 282.44 360.21 291.26C377.09 289.58 392.11 286.68 407.34 283.73C408.5 287.02 409.45 289.49 410.24 292.01C417.29 314.52 424.3 337.05 431.37 359.56C433.75 367.14 434.36 367.49 442.24 366.17C443.71 365.92 445.1 365.12 447.11 364.35C446.16 360.89 445.41 357.83 444.47 354.82C436.98 330.76 429.6 306.66 421.8 282.7C419.97 277.08 420.3 272.83 423.85 267.89C432.38 256.03 435.51 242.71 432.12 228.23C428.92 214.5 418.73 205.91 404.72 205.28C400.99 205.11 397.19 205.34 393.5 205.89C377.06 208.33 360.64 210.95 344.22 213.5C336.48 214.7 335.79 215.37 335.6 223.2C335.19 240.37 334.89 257.54 334.54 274.71C333.86 307.71 333.16 340.71 332.54 373.7C332.49 376.48 332.95 379.28 333.15 381.92C344.64 382.47 345.51 381.85 345.77 371.91C346.21 355.01 346.43 338.11 346.81 321.21C346.96 314.51 347.33 314.03 353.95 312.91C364.26 311.18 374.68 310.03 384.92 307.94C392.87 306.32 393.31 308.44 395.15 314.27C400.38 330.9 405.69 347.49 411.07 364.07C413.04 370.15 413.45 370.38 419.67 369.61C421.92 369.33 424.11 368.52 427.04 367.77C418.74 341.96 410.73 317.04 402.57 291.65C393.19 293.1 384.52 294.44 375.85 295.78C366.92 297.16 357.98 298.56 348.4 300.04M374.55 269.33C382.73 267.92 390.23 267.27 397.35 265.26C408.85 262.01 415.47 250.5 413.38 238.94C411.79 230.16 406.7 225.54 397.89 225.91C391.49 226.19 385.13 227.4 378.76 228.31C375.98 228.71 374.56 230.51 374.56 233.32C374.55 244.79 374.56 256.26 374.56 269.32M435.27 193.07C431.18 190.9 428.55 189.09 425.65 188.04C416.69 184.79 407.42 183.74 397.94 185.15C388.39 186.56 378.85 187.97 369.32 189.46C360.32 190.86 351.31 192.27 342.35 193.85C337.1 194.77 336.15 195.98 336.07 201.3C336.04 203.09 336.58 204.89 336.92 207C339.4 207 341.51 207.26 343.55 206.96C356.01 205.14 368.47 203.3 380.9 201.26C394.95 198.96 408.95 195.93 422.62 203.12C423.83 203.76 426.51 203.13 427.63 202.12C430.13 199.85 432.07 196.97 435.28 193.06M431.34 287.01C457.08 267.75 459.5 214.83 440.08 199.64C438.43 201.01 436.62 202.46 434.87 203.97C431.56 206.82 431.19 209.68 433.45 213.79C443.58 232.18 441.62 250.6 431.44 268.06C427.52 274.77 427.09 280.24 431.34 287M366.19 318.71C354.49 318.1 353.3 319.13 353.09 328.6C352.79 342.56 352.41 356.52 352.17 370.47C352.13 373.27 352.59 376.07 352.8 378.73C364.1 379.46 365.37 378.47 365.56 368.95C365.82 355.8 365.98 342.64 366.17 329.49C366.22 326.06 366.17 322.63 366.17 318.71M367.46 231.36C355.95 230.61 354.99 231.45 354.8 241.86C354.57 254.47 354.34 267.08 354.21 279.69C354.2 281.32 354.82 282.96 355.37 285.64C360.39 279.97 366.83 276.31 367.24 269.58C368.02 257.07 367.46 244.48 367.46 231.35" fill="black"/>
<path d="M685.69 466.54C686.19 438.9 686.7 411.25 687.21 383.61C687.24 382 687.3 380.39 687.39 378.78C688.01 367.74 690.65 364.96 701.81 363.27C717.72 360.86 733.59 358.05 749.55 356.06C756.65 355.17 764.13 354.84 771.14 356.04C793.48 359.85 808.4 376.4 812.21 400.79C813.2 407.13 813.76 413.61 813.68 420.02C813.44 439.61 813.04 459.21 812.23 478.79C811.62 493.47 807.6 507.37 800.13 520.1C787.5 541.6 768.7 554.1 744.13 557.97C727.97 560.51 711.79 562.96 695.62 565.44C686.99 566.77 683.68 564.09 683.74 555.12C683.83 543.58 684.5 532.04 684.6 520.5C684.75 502.52 684.64 484.53 684.64 466.55C685 466.55 685.35 466.55 685.7 466.55M716.91 534.23C718.82 534.51 719.82 534.88 720.74 534.75C728.96 533.52 737.16 532.18 745.38 530.93C760.51 528.62 771.52 520.48 778.91 507.24C784.26 497.64 786.35 487.21 786.57 476.33C786.91 459.7 787.38 443.07 787.59 426.44C787.65 421.63 787.35 416.77 786.67 412.02C783.63 390.76 769.41 379.87 748.29 382.83C732.9 384.99 717.55 387.57 702.22 390.1C693.57 391.53 693.52 391.65 693.33 400.23C692.96 416.6 692.68 432.96 692.35 449.32C691.65 483.39 690.9 517.46 690.26 551.53C690.11 559.19 690.44 559.47 697.9 558.38C713.82 556.05 729.73 553.65 745.61 551.11C758.34 549.08 769.71 543.95 779.55 535.55C787.18 529.03 787.13 527.84 778.95 521.99C778.55 521.71 777.94 521.73 777.05 521.52C776.16 522.09 774.89 522.63 773.97 523.54C765.18 532.16 754.5 536.57 742.41 538.07C736.03 538.87 729.68 539.96 723.32 540.93C717.32 541.85 711.32 542.79 704.47 543.85C704.25 540.24 703.94 537.65 703.97 535.05C704.08 524.32 704.28 513.59 704.49 502.86C705.06 472.28 705.64 441.69 706.24 411.11C706.39 403.42 706.85 402.88 714.11 401.73C725.76 399.88 737.41 398.03 749.09 396.34C759.86 394.78 768.38 399.54 771.74 409.87C773.45 415.11 774.06 420.9 774.09 426.45C774.17 443.35 773.81 460.26 773.43 477.16C773.33 481.43 772.83 485.74 772 489.93C768.76 506.36 758.8 515.58 742.14 517.94C740.55 518.17 738.96 518.66 737.37 518.67C726.92 518.74 722.53 526.44 716.92 534.23M730.84 512.78C735.51 512.21 739.43 511.68 743.37 511.24C754.52 510 761.45 503.61 764.62 493.19C765.93 488.88 766.71 484.28 766.85 479.78C767.37 462.36 767.72 444.93 767.7 427.51C767.7 422.52 766.95 417.28 765.3 412.59C762.76 405.3 757.18 402.28 749.55 402.94C746.08 403.24 742.63 403.77 739.21 404.42C732.46 405.7 732.38 405.76 732.23 412.69C731.57 443.52 730.96 474.35 730.38 505.18C730.34 507.49 730.66 509.81 730.85 512.79M791.68 521.35C793.37 518.83 795.27 516.86 796.17 514.5C799.11 506.77 803.07 499.08 804.13 491.04C807.66 464.16 807.24 437.04 806.89 409.97C806.86 407.58 806.29 405.19 805.88 402.81C802.03 380.52 788.4 365.78 767.86 362.47C762.39 361.58 756.58 361.64 751.07 362.38C734.61 364.58 718.21 367.31 701.8 369.87C694.78 370.97 693.54 372.37 693.8 379.25C693.86 380.73 694.63 382.19 695.28 384.34C704.78 382.91 713.99 381.5 723.21 380.15C733.55 378.64 743.85 376.56 754.24 375.84C772.63 374.56 786.04 383.88 791.07 401.54C793.1 408.65 793.86 416.32 793.9 423.74C793.99 441.43 793.35 459.13 792.93 476.82C792.68 487.4 790.35 497.52 785.84 507.13C781.91 515.51 781.99 515.69 791.67 521.36M725.25 408.02C715.28 406.74 712.78 408.2 712.63 415.59C711.9 451.5 711.28 487.42 710.69 523.34C710.66 524.94 711.3 526.54 711.89 529.44C715.28 525.57 717.67 522.72 720.2 520C722.92 517.09 723.88 513.73 723.94 509.76C724.43 478.13 725.08 446.51 725.63 414.88C725.67 412.56 725.38 410.22 725.25 408.02Z" fill="black"/>
<path d="M477.67 495.31C477.04 510.08 476.88 525.14 475.62 540.1C474.19 557.05 468.17 572.57 457.23 585.71C439.66 606.81 417.09 616.63 389.59 613.26C371.19 611 358.87 600.26 351.57 583.5C346.87 572.7 345.53 561.25 345.67 549.65C345.92 528.98 346.18 508.31 346.97 487.66C347.91 463.21 355.38 441.13 373.74 424.09C391.25 407.85 412.07 400.79 435.94 404.71C451.94 407.33 463.23 416.67 470.44 430.96C475.49 440.96 477.59 451.71 477.66 462.87C477.73 473.61 477.67 484.34 477.67 495.34M440.9 577.52C438.64 579.18 436.67 580.5 434.85 581.99C427.61 587.92 419.32 591.47 410.16 593.07C390.1 596.56 373.56 586.59 368.08 567.01C366.3 560.65 365.66 553.79 365.64 547.16C365.56 527.83 365.95 508.5 366.37 489.18C366.6 478.4 368 467.77 372.44 457.77C379.99 440.78 392.29 429.31 410.73 425.17C433.12 420.14 451.06 431.24 456.21 453.59C457.52 459.28 458.06 465.28 458.03 471.13C457.95 488.84 457.31 506.56 457.12 524.27C456.95 539.46 455.58 554.31 447.46 567.7C445.79 570.47 446.35 572.87 448.99 574.68C450.69 575.84 452.53 576.79 454.2 577.77C455.31 576.96 456.13 576.62 456.54 576.01C457.75 574.24 458.88 572.42 459.89 570.53C467.03 557.24 470.01 542.9 470.32 527.94C470.72 508.35 471.03 488.75 471.3 469.16C471.47 457.22 470.01 445.57 464.38 434.8C457.46 421.55 446.78 413.5 431.83 411.25C405.81 407.33 378.79 420.9 364.78 445.06C357.77 457.14 354.05 470.28 353.54 484.13C352.72 506.39 352.3 528.67 352.08 550.95C351.98 561.47 353.7 571.83 358.32 581.46C364.93 595.22 375.59 604.14 390.8 606.3C410.09 609.03 427.53 604 442.61 591.49C444.77 589.7 446.46 587.35 448.83 584.76C445.85 582.04 443.56 579.94 440.89 577.51M451.62 497.9C451.62 491.3 451.82 480.83 451.53 470.37C451.4 465.32 450.91 460.14 449.63 455.27C446.37 442.96 439.08 433.98 425.99 431.68C412.14 429.25 399.99 433.53 389.92 443.28C388.87 444.3 388.26 446.85 388.76 448.19C390.54 452.95 395.37 454.04 399.68 451.16C402.12 449.53 404.54 447.75 407.22 446.61C420.3 441.08 432.46 446.63 436.54 460.18C437.76 464.23 438.25 468.6 438.4 472.85C438.65 480.09 438.46 487.34 438.28 494.59C437.92 509.35 437.92 524.14 436.88 538.85C435.83 553.62 430.14 566.06 415.04 571.59C402.21 576.28 390.91 570.79 387.16 557.75C385.56 552.19 384.97 546.08 385.27 540.29C386.62 514.66 382.93 488.72 389.92 463.41C390.68 460.66 386.8 455.8 383.66 455.05C379.45 454.05 378.82 457.65 377.77 460.2C374.36 468.5 373.11 477.26 372.92 486.16C372.5 505.75 372.14 525.34 371.91 544.93C371.86 549.21 372.07 553.55 372.73 557.77C375.61 576.21 388.67 587.77 405.52 586.65C419.05 585.76 430.29 580.07 438.66 569.23C445.41 560.5 449.25 550.54 449.93 539.57C450.72 526.99 450.98 514.37 451.63 497.89M430.69 506.24H432.12C432.12 496.05 432.33 485.85 432.03 475.67C431.9 471.17 431.38 466.49 429.92 462.28C426.49 452.43 417.21 448.94 407.72 453.36C402.07 455.99 397.99 460.37 396.13 466.12C394.34 471.66 392.95 477.55 392.75 483.34C392.06 503.71 391.81 524.1 391.76 544.48C391.76 548.64 392.68 553.08 394.29 556.92C397.67 565.01 405.17 567.88 413.59 565.17C418.97 563.43 423.47 560.19 425.62 555.16C427.99 549.6 430.04 543.56 430.49 537.6C431.27 527.2 430.71 516.7 430.71 506.25" fill="black"/>
<path d="M645.15 471.51C644.61 484.24 644.45 499.29 643.2 514.26C641.78 531.21 635.76 546.73 624.84 559.88C607.29 581 584.72 590.81 557.22 587.48C538.81 585.25 526.47 574.53 519.17 557.77C514.35 546.72 513.08 535.01 513.25 523.12C513.53 502.99 513.82 482.85 514.51 462.74C515.35 437.99 522.71 415.63 541.27 398.34C558.76 382.06 579.59 375.03 603.46 378.91C619.46 381.5 630.76 390.83 637.99 405.11C642.66 414.34 644.97 424.27 645.12 434.6C645.29 446.14 645.16 457.68 645.16 471.52M621.69 552.12C623 551.1 623.78 550.73 624.21 550.12C625.29 548.59 626.29 546.99 627.18 545.35C634.26 532.35 637.48 518.31 637.85 503.63C638.36 483.24 638.63 462.83 638.88 442.44C639.01 432.17 637.73 422.11 633.64 412.53C625.71 393.99 608.95 383.36 588.89 384.74C562.72 386.55 543.25 399.12 530.79 422.21C523.9 434.98 521.17 448.87 520.85 463.28C520.43 482.33 519.91 501.39 519.7 520.44C519.63 526.59 520.03 532.8 520.87 538.88C523.88 560.56 537.16 576.6 556.14 580.06C577.5 583.95 596.54 578.14 612.68 563.45C613.96 562.28 614.69 560.5 616.01 558.5C613.38 556.15 611.06 554.08 608.4 551.7C606.11 553.4 604.15 554.74 602.32 556.24C595.08 562.16 586.77 565.69 577.61 567.26C557.56 570.7 541.1 560.65 535.6 541.07C533.95 535.21 533.22 528.91 533.21 522.81C533.17 502.68 533.52 482.54 533.97 462.42C534.21 451.91 535.7 441.56 540.05 431.82C547.63 414.85 559.97 403.41 578.41 399.31C600.81 394.33 618.66 405.48 623.81 427.88C625.06 433.32 625.63 439.03 625.61 444.62C625.54 462.06 624.94 479.51 624.74 496.95C624.56 512.65 623.44 528.09 614.98 541.98C613.29 544.76 614.06 547.13 616.64 548.93C618.16 549.98 619.76 550.9 621.67 552.08M619.19 472.61C619.19 465.94 619.41 455.2 619.09 444.47C618.94 439.15 618.4 433.69 616.96 428.6C613.59 416.64 606.23 408 593.49 405.83C579.64 403.46 567.49 407.71 557.44 417.5C556.4 418.51 555.83 421.08 556.35 422.42C558.21 427.19 562.95 428.22 567.29 425.28C569.5 423.78 571.68 422.14 574.09 421.05C587.36 415.04 599.96 420.57 604.11 434.42C605.32 438.47 605.81 442.84 605.95 447.09C606.2 454.33 606.01 461.58 605.83 468.83C605.46 483.59 605.47 498.38 604.42 513.09C603.37 527.86 597.63 540.29 582.52 545.79C569.69 550.45 558.42 544.92 554.68 531.86C553.09 526.3 552.51 520.19 552.81 514.4C554.16 488.77 550.48 462.82 557.47 437.52C558.22 434.81 554.23 429.96 551.14 429.2C547.43 428.3 546.6 431.31 545.59 433.7C541.99 442.23 540.66 451.24 540.46 460.42C540.04 480.01 539.69 499.6 539.44 519.19C539.39 523.21 539.61 527.26 540.16 531.23C542.75 550.01 556.01 562 573.13 560.84C586.66 559.92 597.89 554.21 606.25 543.37C612.98 534.63 616.8 524.66 617.49 513.69C618.26 501.38 618.53 489.03 619.18 472.62M598.22 479.88H599.66C599.66 469.69 599.97 459.48 599.52 449.31C599.3 444.33 598.34 439.14 596.49 434.54C593.78 427.77 588.1 425.08 580.87 425.96C573.96 426.8 569.16 430.78 565.51 436.49C561.29 443.09 560.32 450.53 560.15 458.07C559.72 478.18 559.27 498.3 559.31 518.41C559.32 523.06 560.55 528.03 562.48 532.29C565.51 539 572.18 541.6 579.33 539.89C585.38 538.44 590.51 535.12 593 529.55C595.46 524.04 597.54 517.98 597.98 512.03C598.77 501.37 598.2 490.6 598.2 479.88" fill="black"/>
<path d="M702.76 177.87V210.39C706.25 210.1 709.62 209.99 712.94 209.51C723.03 208.05 733.07 206.22 743.18 204.97C751.36 203.95 754.09 206.44 754.13 214.65C754.18 222.7 754 230.76 753.52 238.8C753 247.43 749.91 250.55 741.22 251.94C730.36 253.67 719.48 255.26 708.61 256.99C706.29 257.36 704.01 258.05 701.25 258.7V284.71C708.03 283.82 714.32 283.1 720.58 282.15C731.72 280.46 742.83 278.61 753.97 276.88C762.36 275.57 765.51 278.13 765.6 286.56C765.68 294.08 765.6 301.6 765.37 309.11C765.09 318.9 761.95 322.55 752.14 324.1C726.97 328.08 701.77 331.9 676.58 335.78C672.87 336.35 669.17 337.06 665.44 337.44C656.56 338.34 654.11 336.27 654.15 327.42C654.22 311.58 654.43 295.74 654.77 279.9C655.67 237.22 656.67 194.54 657.63 151.86C657.65 151.05 657.63 150.25 657.67 149.44C658.04 140.75 660.86 137.29 669.37 135.84C682.06 133.68 694.79 131.73 707.52 129.75C723.69 127.23 739.87 124.79 756.04 122.26C765.96 120.71 768.8 123.03 768.81 133.08C768.81 139.52 768.73 145.97 768.61 152.41C768.39 164.38 765.58 167.71 754 169.53C739.42 171.83 724.83 174 710.25 176.27C707.92 176.63 705.63 177.26 702.76 177.88M757.88 303.68C755.28 303.82 752.91 303.73 750.62 304.09C728.62 307.51 706.65 311.05 684.64 314.43C681.37 314.93 678 314.77 674.3 314.94C674.14 311.55 673.89 309.18 673.95 306.81C674.23 293.66 674.54 280.51 674.93 267.36C675.28 255.4 673.24 255.89 687.24 253.7C704.99 250.92 722.76 248.25 740.52 245.45C746.15 244.56 747.3 243.16 747.3 237.47C747.3 235.69 746.69 233.91 746.28 231.75C744.33 231.75 742.74 231.55 741.22 231.78C723.46 234.52 705.72 237.38 687.96 240.08C684.14 240.66 680.25 240.76 675.49 241.15C675.49 237.38 675.44 234.76 675.49 232.14C675.85 215.77 676.22 199.4 676.63 183.03C676.82 175.16 677.19 174.7 685.24 173.43C696.63 171.63 708.04 169.96 719.44 168.22C731.11 166.44 742.79 164.73 754.43 162.81C761.24 161.68 762.47 159.96 762 153.09C761.91 151.83 761.29 150.6 760.74 148.78C757.95 149 755.31 149.05 752.72 149.44C725.95 153.57 699.18 157.77 672.42 161.92C664.45 163.16 663.92 163.49 663.75 171.46C662.67 222.18 661.67 272.91 660.68 323.63C660.64 325.93 661.05 328.24 661.26 330.65C663.89 330.65 665.78 330.89 667.59 330.61C689.33 327.26 711.05 323.82 732.78 320.43C739.14 319.44 745.53 318.63 751.87 317.51C758.07 316.41 758.97 315.21 758.84 308.89C758.81 307.36 758.29 305.84 757.87 303.67M664.73 156.07C668.53 155.7 671.43 155.56 674.29 155.12C692.27 152.38 710.24 149.58 728.22 146.78C737.47 145.34 746.72 143.94 755.96 142.38C761.71 141.41 763.22 138.96 762.4 132.62C761.88 128.59 761.14 128.21 754.61 129.19C738.48 131.6 722.34 134.03 706.21 136.53C694.58 138.33 682.96 140.18 671.35 142.15C664.51 143.31 663.94 144.14 664.06 151.03C664.08 152.3 664.38 153.57 664.72 156.06M686.63 307.14C692.43 306.36 696.54 305.87 700.63 305.24C718.08 302.56 735.54 299.9 752.96 297.1C758.56 296.2 760.09 293.51 759.2 287.21C758.65 283.35 758 283 751.24 284C736.69 286.16 722.21 288.96 707.59 290.48C697.31 291.55 692.74 298.39 686.63 307.14ZM746.99 211.35C743.18 211.67 740.27 211.76 737.4 212.18C727.63 213.63 717.92 215.59 708.11 216.62C698.23 217.66 694.05 224.74 688.08 233.13C694.04 232.31 698.19 231.8 702.32 231.16C715.25 229.17 728.19 227.25 741.08 225.06C747.01 224.05 747.58 223.09 747.66 217.1C747.68 215.57 747.31 214.03 746.98 211.35M683.05 227.28C690.27 220.94 696.64 215.47 695.78 205.54C695.53 202.62 695.89 199.65 695.91 196.71C695.94 191.17 695.91 185.63 695.91 179.67C692.6 179.67 690.24 179.48 687.92 179.72C684.87 180.04 683.05 181.85 683.05 185.04C683.03 198.62 683.05 212.19 683.05 227.29M693.79 260.55C682.33 259.9 681.51 260.55 681.15 270.42C680.85 278.72 680.67 287.02 680.57 295.32C680.55 296.95 681.12 298.59 681.72 301.86C686.61 296.01 692.81 292.71 693.55 286.38C694.53 278.01 693.79 269.44 693.79 260.55Z" fill="black"/>
<path d="M545.21 235.98C555.11 234.49 563.81 233.19 572.5 231.86C577.01 231.17 581.48 230.25 586 229.71C593.72 228.79 596.7 231.17 596.8 238.71C596.91 247.3 596.74 255.89 596.39 264.47C596.09 271.64 593.08 275.14 585.8 276.46C573.93 278.61 561.97 280.3 550.08 282.33C544.09 283.35 543.85 283.62 543.7 289.41C543.53 295.79 543.66 302.17 543.66 309.25C545.95 309.25 547.73 309.48 549.44 309.21C564.02 306.97 578.58 304.65 593.15 302.34C606.5 300.23 608.8 302.27 608.45 315.93C608.28 322.64 608.3 329.36 607.98 336.05C607.6 343.77 604.57 347.41 597.03 348.62C567.11 353.41 537.17 358.1 507.22 362.68C500.23 363.75 496.79 360.64 496.86 352.98C496.98 337.69 497.58 322.4 497.88 307.1C498.71 264.97 499.5 222.84 500.31 180.71C500.33 179.37 500.39 178.02 500.46 176.69C501.04 164.51 503.46 162.02 515.58 160.17C541.82 156.16 568.05 152 594.28 147.94C597.46 147.45 600.67 146.93 603.87 146.93C608.71 146.93 611.25 148.76 611.34 153.48C611.54 163.93 611.47 174.42 610.64 184.83C610.17 190.63 605.31 193.1 599.82 193.94C585.77 196.11 571.73 198.27 557.69 200.48C543.03 202.78 545.61 201.86 545.25 214.65C545.06 221.29 545.22 227.95 545.22 235.97M519.94 266.6C519.18 264.67 518.64 263.94 518.65 263.21C518.85 243.89 519.13 224.58 519.37 205.27C519.42 200.87 521.99 199.35 525.98 198.79C536.33 197.33 546.65 195.62 556.97 194.01C570.74 191.87 584.53 189.77 598.28 187.55C603.86 186.65 604.59 185.76 604.69 180.29C604.73 178.28 604.23 176.25 603.94 173.88C602.03 173.88 600.72 173.71 599.47 173.9C571.39 178.25 543.31 182.59 515.25 187.06C506.65 188.43 506.61 188.59 506.42 197.23C506.05 213.59 505.77 229.95 505.44 246.32C504.74 280.38 503.99 314.45 503.35 348.52C503.21 356.17 503.52 356.42 511.04 355.33C526.96 353.01 542.85 350.56 558.75 348.1C570.93 346.22 583.12 344.32 595.28 342.29C600.88 341.36 601.47 340.6 601.51 334.95C601.53 332.95 601.01 330.94 600.63 328.11C572.77 332.37 545.62 336.52 518.23 340.71C517.68 338.66 517.05 337.4 517.06 336.15C517.23 319.52 517.53 302.89 517.7 286.25C517.74 281.87 520.12 280.11 524.11 279.54C531.54 278.49 538.96 277.32 546.37 276.17C558.82 274.23 571.28 272.38 583.7 270.23C589.52 269.23 589.9 268.55 590.07 262.93C590.12 261.14 589.74 259.33 589.48 256.81C577.51 256.91 566.36 259.77 555.08 261.39C543.44 263.06 531.82 264.83 519.93 266.6M604.77 153.58C601.45 153.81 598.82 153.79 596.25 154.18C569.28 158.33 542.33 162.56 515.37 166.75C506.51 168.13 504.69 171.92 508.9 180.82C510.11 180.82 511.45 180.99 512.74 180.8C534.42 177.45 556.09 174.07 577.76 170.67C585.16 169.51 592.54 168.22 599.95 167.13C603.46 166.61 605.21 164.7 605.22 161.25C605.22 158.92 604.96 156.59 604.77 153.58ZM600.6 308.65C598.85 308.65 596.97 308.41 595.17 308.69C579.29 311.15 563.42 313.65 547.57 316.25C540.4 317.42 533.71 323.77 531.18 331.77C532.63 331.67 533.93 331.67 535.2 331.47C554.79 328.51 574.39 325.56 593.97 322.51C602.51 321.18 603.92 318.17 600.61 308.65M531.91 255.98C532.21 256.67 532.51 257.35 532.81 258.04C538.25 257.2 543.69 256.35 549.13 255.52C560.5 253.79 571.88 252.11 583.25 250.33C589.62 249.33 590.34 248.5 590.36 242.02C590.36 240.27 589.77 238.51 589.47 236.83C588.19 236.59 587.39 236.22 586.65 236.33C573.43 238.33 560.2 240.3 547.01 242.51C545.03 242.84 542.86 243.94 541.44 245.34C538.06 248.67 535.07 252.41 531.92 255.98M538.34 204.67C527.22 204.08 525.84 205.2 525.68 214.54C525.49 225.28 525.36 236.02 525.31 246.76C525.31 248.38 525.89 250.01 526.2 251.63C526.76 251.8 527.32 251.96 527.88 252.13C531.36 247.18 537.04 242.56 537.87 237.19C539.46 226.76 538.34 215.91 538.34 204.67ZM523.78 326.66C529.8 321.79 535.11 317.95 536.25 312.44C538.06 303.69 537.43 294.52 536.76 285.66C525.84 284.62 524.22 285.88 524.04 295.02C523.9 302.25 523.86 309.48 523.79 316.7C523.76 319.5 523.79 322.3 523.79 326.65" fill="black"/>
<path d="M124.83 357.44C124.19 392.26 102.99 422.75 71.86 432.98C60.9 436.58 49.71 437.55 38.51 434.99C11.53 428.82 -0.84 404.95 0.0400001 382.49C0.27 376.69 2.14 373.68 7.62 372.57C17.59 370.55 27.68 369 37.79 367.85C43.15 367.24 44.84 368.98 45.42 374.77C46.08 381.36 48.97 385.94 55.39 387.91C61.74 389.86 67.01 387.5 71.56 383.25C78.22 377.02 80.67 364.85 77.13 356.38C74.56 350.22 69.47 347.6 62.26 347.92C55.87 348.21 49.3 348.71 43.08 347.6C21.85 343.82 7.99 328.57 5.38 307.15C0.61 267.99 26.6 233.13 65.52 226.83C76.58 225.04 87.47 226.1 97.74 231.09C113.79 238.88 123.86 255.97 122.8 273.67C122.42 279.92 120.14 282.98 113.82 284.2C104.6 285.97 95.32 287.44 86.03 288.71C80.41 289.48 78.7 287.95 77.08 282.12C75.44 276.21 72.9 274.23 66.85 274.12C58.29 273.98 51.37 279.7 50.52 287.63C49.54 296.72 54.69 301.76 63.89 301.19C69.75 300.82 75.76 300.21 81.51 301.06C102.74 304.21 118 318.82 122.54 339.95C123.77 345.68 124.1 351.6 124.84 357.44M38.56 374.67C36.44 374.67 34.86 374.49 33.33 374.7C26.72 375.62 25.51 377.33 26.65 383.77C29.63 400.51 42.63 410.27 59.62 408.67C67.36 407.95 74.23 405.1 80.18 400.25C95.3 387.9 100.72 371.76 97.41 352.83C94.41 335.69 82.88 326.86 65.59 327.54C61.57 327.7 57.53 328.15 53.53 327.94C39.58 327.24 29.24 318.62 25.82 305.15C19.32 279.49 36.65 252.18 62.74 247.44C74.62 245.28 85.81 246.83 94.77 256.05C99.44 260.85 101.6 266.82 102.91 273.26C104.07 278.97 104.6 279.22 109.63 278.37C115.19 277.43 116.18 276.29 115.91 271.13C114.95 252.86 102.13 237.99 84.31 234.11C75.67 232.23 67.22 232.92 58.81 235.05C32.8 241.67 6.43 266.25 11.85 306.85C14.25 324.81 26.59 337.83 44.51 341.12C50.72 342.26 57.31 341.74 63.7 341.46C72.62 341.06 78.8 344.03 82.43 351.15C89.72 365.44 83 385.92 68.72 392.96C55.55 399.45 42.95 393.68 39.42 379.52C39.1 378.23 38.95 376.89 38.55 374.65M37.56 271.56C36.39 273.45 34.55 275.27 34.08 277.39C32.72 283.61 30.99 289.96 31.06 296.25C31.22 311.02 42.07 321.26 56.82 321.48C60.84 321.54 64.86 321.04 68.88 320.96C86.55 320.62 99.68 331.13 103.52 348.42C105.67 358.12 105.28 367.65 101.74 376.91C99.73 382.16 97.34 387.27 94.81 392.29C93.22 395.45 93.37 397.96 96.29 399.99C97.96 401.15 99.82 402.05 101.24 402.87C102.37 402.26 102.94 402.11 103.29 401.74C104.04 400.99 104.78 400.19 105.35 399.3C116.59 381.8 120.8 362.89 116.19 342.42C111.86 323.22 97.77 309.87 78.77 307.35C73.27 306.62 67.55 307.34 61.94 307.64C50.33 308.26 43.05 300.73 44.27 289.14C44.41 287.81 44.75 286.5 45.06 285.2C47.05 276.81 46.73 276.16 37.54 271.56M87.92 402.73C74.57 412.14 60.85 419.43 44.3 414.48C26.56 409.18 20.77 394.95 19.09 378.54C7.71 376.91 5.54 378.91 6.83 389.09C9.37 409.08 22.68 424.43 41.91 428.27C62.05 432.29 79.31 425.37 94.59 412.53C95.1 412.1 95.13 411.09 95.62 409.63C93.27 407.52 90.77 405.28 87.92 402.72M84.94 281.91C86.64 281.74 87.95 281.71 89.23 281.48C96.24 280.24 97.27 278.66 95.33 271.73C93.09 263.72 88.08 258.09 80.22 255.29C69.26 251.37 59.12 254.01 49.6 259.8C47.74 260.93 44.94 263.87 45.32 264.7C46.44 267.13 48.71 269.31 51.04 270.77C52.15 271.46 54.55 270.54 56.17 269.88C71.38 263.75 78.16 266.41 84.93 281.91" fill="black"/>
<path d="M243.35 515.19C250.09 514.25 256.93 513.34 263.77 512.35C270.13 511.43 276.47 510.23 282.86 509.51C291.57 508.54 293.92 510.74 293.93 519.7C293.95 527.48 293.81 535.27 293.53 543.04C293.23 551.47 290.02 555.02 281.53 556.4C271.21 558.09 260.88 559.69 250.54 561.24C240.86 562.69 240.85 562.63 240.69 572.78C240.45 588.34 240.22 603.91 239.96 619.47C239.92 621.88 239.86 624.31 239.57 626.7C238.73 633.64 235.93 637.06 229.29 638.29C221.12 639.8 212.89 641.08 204.64 642C196.66 642.89 193.85 640.3 193.94 632.02C194.1 616.73 194.67 601.44 194.98 586.14C195.83 543.75 196.62 501.36 197.46 458.97C197.51 456.56 197.57 454.13 197.86 451.74C198.71 444.82 201.41 441.65 208.4 440.53C238.31 435.71 268.24 431.01 298.19 426.42C305.53 425.3 308.63 428.11 308.71 435.79C308.8 444.11 308.6 452.43 308.25 460.74C307.91 468.6 305.27 471.88 297.35 473.26C281.77 475.98 266.12 478.29 250.49 480.73C242.65 481.96 242.56 481.94 242.4 489.68C242.25 497.19 242.21 504.7 242.2 512.21C242.2 512.94 242.75 513.66 243.36 515.18M301.08 453.22C297.83 453.5 295.19 453.59 292.6 453.99C266.1 458.08 239.6 462.26 213.09 466.34C204.22 467.71 203.69 468.11 203.5 476.83C203.14 492.93 202.89 509.04 202.56 525.14C201.86 559.23 201.12 593.31 200.46 627.4C200.41 629.93 200.85 632.47 201.05 634.86C212.45 635.55 213.35 634.83 213.71 624.98C213.99 617.47 214.14 609.95 214.28 602.44C214.48 591.17 214.59 579.89 214.8 568.62C214.94 560.65 215.09 560.42 222.47 559.05C227.74 558.07 233.06 557.36 238.36 556.54C252.41 554.36 266.46 552.23 280.5 549.98C286.3 549.05 287.14 548 287.18 542.04C287.18 540.27 286.66 538.5 286.23 535.71C262.86 539.23 239.97 542.69 217.3 546.1C216.49 544.44 215.84 543.72 215.85 543.03C216.03 523.44 216.25 503.85 216.53 484.26C216.57 481.19 218.17 479.27 221.33 478.78C223.45 478.46 225.55 477.99 227.67 477.66C249.67 474.27 271.69 470.93 293.68 467.49C301.44 466.27 302.07 465.38 301.82 457.57C301.79 456.53 301.49 455.51 301.1 453.24M204.77 460.57C208.77 460.18 212.19 460.02 215.56 459.5C241.72 455.43 267.88 451.31 294.03 447.17C302.9 445.77 304.64 441.99 300.31 433.11C299.14 433.18 297.83 433.16 296.55 433.35C284.12 435.24 271.69 437.13 259.28 439.07C242.9 441.63 226.54 444.35 210.13 446.76C205.82 447.39 203.95 449.56 204.01 453.63C204.04 455.68 204.45 457.72 204.78 460.57M233.78 565.27C222.74 564.1 221.33 565.31 221.11 575.37C220.77 591.44 220.38 607.51 220.11 623.58C220.06 626.36 220.55 629.15 220.77 631.8C232.07 632.47 233.33 631.48 233.5 621.99C233.8 605.38 234 588.77 234.19 572.17C234.22 569.84 233.91 567.5 233.77 565.28M287.11 517.06C285.75 516.54 285.23 516.13 284.78 516.2C270.8 518.23 256.8 520.08 242.89 522.5C237.91 523.37 231.36 531.66 230.17 537.04C230.97 537.11 231.78 537.34 232.55 537.22C248.9 534.7 265.22 532.05 281.58 529.64C285.86 529.01 287.72 526.94 287.46 522.75C287.35 520.93 287.23 519.1 287.11 517.06ZM235.78 484.56C224.17 483.48 222.91 484.51 222.75 494.69C222.58 505.14 222.46 515.59 222.4 526.04C222.4 527.7 222.86 529.37 223.26 532.01C230.9 525 237.29 518.84 235.76 508.28C235.27 504.87 235.76 501.33 235.78 497.84C235.79 493.38 235.78 488.92 235.78 484.56Z" fill="black"/>
<path d="M200.3 256.31C192.7 257.37 186.15 258.25 179.61 259.22C174.84 259.92 170.1 260.95 165.31 261.46C158.27 262.21 155.24 259.61 155.11 252.52C154.96 244.48 155.01 236.41 155.38 228.38C155.8 219.15 158.57 215.9 167.67 214.36C185.38 211.37 203.14 208.68 220.88 205.93C241.01 202.81 261.15 199.71 281.3 196.7C290.05 195.39 293.04 198.06 292.99 207.15C292.95 214.66 292.63 222.17 292.34 229.68C291.98 238.78 289.03 242.2 280.11 243.69C272.44 244.97 264.74 246 257.06 247.21C253.9 247.71 250.77 248.37 246.95 249.07C246.71 252.39 246.35 255.54 246.29 258.69C245.35 301.6 244.46 344.52 243.55 387.44C243.51 389.58 243.62 391.75 243.4 393.88C242.75 400.17 239.78 403.84 233.62 405.01C224.93 406.65 216.18 408.01 207.4 409.11C201.17 409.89 198.44 407.39 197.94 401.16C197.75 398.76 197.92 396.34 197.96 393.92C198.73 351.54 199.51 309.15 200.28 266.77C200.34 263.63 200.28 260.49 200.28 256.33M227.12 225.9C226.38 284.11 224.39 341.32 223.95 399.06C226.62 399.06 228.17 399.22 229.68 399.03C236.15 398.19 236.78 397.46 237.1 390.96C237.14 390.16 237.12 389.35 237.14 388.55C238.21 336.23 239.28 283.92 240.35 231.6C240.52 223.34 240.96 222.91 249.45 221.6C259.78 220.01 270.09 218.24 280.45 216.84C284.8 216.25 286.61 213.98 286.52 209.9C286.48 207.86 286.04 205.83 285.7 203.08C281.37 203.51 277.69 203.76 274.03 204.27C268.46 205.05 262.91 206.04 257.35 206.9C228.47 211.37 199.58 215.78 170.71 220.32C161.47 221.77 159.83 225.08 163.83 234.67C184.52 232.59 205.08 227.51 227.12 225.89M204.71 401.55C216.08 402.58 217.3 401.55 217.51 391.38C218.51 343.87 219.5 296.37 220.47 248.86C220.52 246.32 220.27 243.77 220.09 239.64C212.33 246.78 206.71 252.39 206.62 262.66C206.24 306.41 205.1 350.16 204.28 393.91C204.23 396.5 204.56 399.08 204.7 401.55M213.16 235.52C212.2 234.93 211.74 234.39 211.36 234.45C196.24 236.68 181.12 238.91 166.02 241.27C162.96 241.75 161.42 243.92 161.47 247.01C161.51 249.33 161.79 251.64 162 254.46C164.44 254.46 166.26 254.68 168.01 254.42C176.77 253.15 185.47 251.25 194.27 250.53C204.34 249.72 208.64 242.86 213.16 235.53M285.74 222.69C273.11 224.65 262.04 226.32 250.98 228.12C248.27 228.56 246.77 230.43 246.78 233.21C246.78 235.77 247.02 238.32 247.21 242.04C259.45 240.13 270.76 238.52 281.99 236.44C283.46 236.16 285.15 233.69 285.59 231.95C286.2 229.52 285.74 226.81 285.74 222.69Z" fill="black"/>
<path d="M846.41 155.43C836.8 156.88 828.37 158.19 819.94 159.41C816.23 159.95 812.49 160.63 808.76 160.65C804.14 160.68 801.47 158.51 801.38 153.89C801.19 143.98 801.21 134.03 801.99 124.16C802.5 117.61 806.09 114.78 813.27 113.61C827.3 111.33 841.35 109.24 855.39 107.05C878.17 103.51 900.96 100.04 923.73 96.3901C936.98 94.2701 939.47 96.3801 939.02 110.02C938.8 116.72 938.74 123.43 938.39 130.13C937.98 137.92 935.14 141.21 927.41 142.6C917.91 144.29 908.35 145.65 898.83 147.22C897.03 147.52 895.28 148.1 892.95 148.69C892.74 152.03 892.43 155.18 892.37 158.34C891.45 200.99 890.56 243.64 889.67 286.29C889.63 288.44 889.73 290.6 889.54 292.73C888.97 299.19 886.35 302.87 880.12 304.13C871.2 305.94 862.17 307.35 853.12 308.32C846.78 309 844.21 306.52 844.08 299.99C843.91 291.41 844.25 282.82 844.4 274.24C845.07 237.76 845.75 201.27 846.41 164.79C846.46 161.93 846.41 159.06 846.41 155.42M931.83 102.66C929.99 102.52 928.92 102.24 927.9 102.39C890.02 108.24 852.15 114.12 814.28 120.02C813.23 120.18 812.13 120.36 811.18 120.8C808.34 122.14 806.99 126.65 808.04 130.77C808.98 134.46 811.63 134.05 814.41 133.57C817.84 132.97 821.29 132.48 824.73 131.94C838.77 129.75 852.79 127.52 866.84 125.38C872.22 124.56 873.14 125.28 873.33 130.49C873.46 133.97 873.26 137.46 873.19 140.95C872.18 190.56 871.15 240.18 870.17 289.79C870.12 292.6 870.43 295.42 870.6 298.53C872.9 298.53 874.23 298.68 875.52 298.5C882.06 297.62 882.96 296.55 883.22 289.71C883.27 288.37 883.26 287.03 883.28 285.69C884.34 233.93 885.4 182.17 886.48 130.41C886.64 122.59 886.73 122.46 894.41 121.22C904.73 119.54 915.07 118.04 925.39 116.36C931.6 115.34 932.65 114.09 932.66 107.95C932.66 106.41 932.18 104.86 931.82 102.66M850.76 301.23C862.3 301.62 863.42 300.67 863.62 291.21C864.62 243.51 865.61 195.81 866.58 148.11C866.63 145.57 866.38 143.03 866.27 140.5C858.98 146.05 852.87 151.1 852.77 161.1C852.31 205.32 851.2 249.53 850.36 293.75C850.31 296.1 850.6 298.45 850.75 301.23M859.26 135.19C858.95 134.57 858.65 133.95 858.34 133.33C843.04 135.75 827.75 138.19 812.44 140.59C809.29 141.08 807.66 142.9 807.63 146.01C807.61 148.33 807.87 150.67 808.02 153.45C811.21 153.45 813.84 153.75 816.38 153.39C824.34 152.28 832.23 150.33 840.22 149.82C850.36 149.17 854.57 142.11 859.25 135.2M931.86 122.67C919.1 123.23 907.66 125.57 896.24 127.87C894.92 128.14 893.31 130.34 893.08 131.84C892.65 134.57 893.16 137.44 893.33 141.36C905.65 139.41 916.96 137.78 928.18 135.68C929.64 135.4 931.24 132.91 931.72 131.15C932.33 128.95 931.87 126.44 931.87 122.66" fill="black"/>
<path d="M585.03 38.19C585.39 28.32 585.65 20.39 585.97 12.47C586.37 2.47 586.86 1.94 597.07 0.7C599.68 0.38 602.32 0.26 605.61 0C606.01 2.62 606.61 4.64 606.57 6.65C606.12 32.15 605.63 57.65 605.03 83.15C604.88 89.76 604.02 90.79 599.11 92.03C592.03 93.82 589.7 93.04 586.35 87.35C581.48 79.08 576.72 70.73 571.07 60.95C570.39 64.18 569.8 65.79 569.75 67.41C569.51 74.92 569.54 82.45 569.23 89.96C569 95.54 568.15 96.34 562.89 97.52C548.72 100.71 548.22 100.2 548.59 86.02C549.15 64.28 549.49 42.53 549.93 20.79C549.97 18.91 549.89 17.03 550.01 15.15C550.37 9.63 551.48 8.19 556.04 7.1C563.61 5.3 565.48 5.71 568.49 10.73C572.63 17.64 576.49 24.7 580.54 31.66C581.54 33.37 582.79 34.94 585.04 38.18" fill="black"/>
<path d="M530.35 56.8902C530.35 63.3302 530.86 69.8102 530.25 76.1902C528.56 94.0002 516.54 106.7 499.4 109.45C486.86 111.46 476.26 104.92 472.79 92.7902C471.84 89.4602 471.11 85.9202 471.16 82.5002C471.33 70.7002 471.38 58.8602 472.4 47.1202C473.9 29.9902 485.56 17.5302 501.92 14.3902C516.06 11.6702 527.72 19.4402 530.35 33.6302C531.08 37.5602 531.11 41.6302 531.27 45.6402C531.42 49.3902 531.3 53.1402 531.3 56.9002H530.35V56.8902ZM509.77 60.5102H509.98C509.98 54.3802 510.76 48.1202 509.77 42.1702C508.62 35.2502 501.1 33.5902 496.47 38.8902C494.81 40.7902 493.33 43.5402 493.19 45.9802C492.54 57.1702 492.14 68.4002 492.19 79.6102C492.21 84.4502 495.01 87.2702 498.54 87.7002C502.79 88.2102 505.91 86.2002 507.68 82.5702C508.81 80.2502 509.5 77.5302 509.66 74.9402C509.97 70.1502 509.75 65.3302 509.75 60.5202" fill="black"/>
<path d="M425.89 51.16C429.52 44.51 432.89 39.39 435.18 33.83C438.13 26.67 443.22 23.57 450.63 23.31C453.77 23.2 456.9 22.75 459.84 22.48C462.07 26.48 459.63 28.82 458.37 31.26C452.22 43.18 445.77 54.95 439.82 66.97C438.1 70.44 437.01 74.49 436.76 78.35C436.08 88.79 436.06 99.27 435.68 109.73C435.43 116.56 434.75 117.24 427.87 118.47C414.67 120.83 414.75 120.83 415.12 107.68C415.39 98.03 417.27 87.9 415.03 78.83C412.85 70.06 406.33 62.36 401.68 54.22C398.89 49.32 395.89 44.55 393.24 39.58C390.83 35.05 391.63 32.98 396.28 31.9C400.45 30.93 404.74 30.5 408.98 29.87C412.5 29.34 414.41 31.42 415.98 34.15C419.01 39.42 422.1 44.67 425.9 51.17" fill="black"/>
<path d="M354.36 39.1699V108.77C360.66 107.87 366.66 107.04 372.65 106.16C379.44 105.16 380.26 105.8 380.46 112.38C380.48 112.92 380.46 113.46 380.46 113.99C380.49 126.31 380.43 126.3 368.37 128.09C359.1 129.46 349.87 131.13 340.59 132.5C333.67 133.52 332.41 132.43 332.53 125.45C332.99 100.25 333.51 75.0599 334.1 49.8599C334.26 42.8499 335.22 41.8799 342.45 40.6599C346.07 40.0499 349.73 39.7499 354.36 39.1799" fill="black"/>
<path d="M434.04 693.21C437.89 692.55 441.51 691.93 445.39 691.26C446.11 692.41 446.7 693.22 447.14 694.11C448.33 696.48 449.94 698.17 452.83 697.12C456.07 695.94 457.2 693.23 456.94 690.07C456.69 686.97 454.82 685.3 451.55 685.43C449.95 685.5 448.31 685.56 446.73 685.33C441.18 684.52 437.38 681.39 435.65 676.1C431.14 662.3 442.76 647.45 457.2 648.42C463.92 648.87 469.02 653.13 470.35 659.42C471.26 663.73 470.38 665.5 466.05 666.2C462.46 666.78 458.2 669.61 455.51 664.12C455.18 663.44 452.21 663.17 451.35 663.84C450.1 664.82 449.15 666.82 449.1 668.41C449.08 669.22 451.26 670.17 452.53 670.92C452.93 671.16 453.58 670.93 454.11 670.97C466.35 671.88 471.82 678.21 470.9 690.36C470.12 700.6 463.41 708.96 453.95 711.47C441.68 714.72 432.96 707.3 434.03 693.19" fill="black"/>
<path d="M402.5 671.76V681.26C405.17 681.03 407.48 680.8 409.8 680.65C412.12 680.5 414.44 680.44 417.24 680.31V693.2C412.06 694.36 407.2 695.45 401.98 696.62C401.87 698.84 401.76 700.88 401.61 704.02C408.07 703.22 414 702.49 420.21 701.72C420.62 703.49 421.1 704.73 421.18 706C421.71 714.76 421.2 715.5 412.6 716.94C404.75 718.25 396.86 719.32 389.15 720.46C386.96 715.04 387.44 670.49 389.75 659.41C399.82 657.83 410.26 656.18 421.92 654.35C422 658.61 422.26 661.94 422.07 665.25C421.9 668.22 419.57 668.98 416.99 669.36C412.5 670.03 408.03 670.83 402.5 671.76Z" fill="black"/>
<path d="M603.96 686.49C604.47 683.59 604.59 681.49 605.22 679.55C610.71 662.72 616.25 645.9 621.87 629.11C624.19 622.19 624.41 622.17 632.36 622.75C637.29 631.93 649.83 673.28 649.43 679.05C638.32 683.13 637.85 682.99 632.84 673.81C630.15 674.11 627.17 674.13 624.39 674.89C622.83 675.32 620.61 676.79 620.38 678.09C619.13 685.08 613.86 685.81 608.42 686.47C607.4 686.59 606.35 686.49 603.96 686.49Z" fill="black"/>
<path d="M557.26 633.31C562.2 632.58 566.28 631.98 570.92 631.29C573.9 640.11 576.67 648.33 580.1 658.49C582 653.28 583.28 649.89 584.47 646.47C585.71 642.93 586.87 639.36 588.07 635.81C591.03 627.04 593.55 625.64 603.99 627.32C603.64 629.08 603.47 630.89 602.92 632.57C597.4 649.66 591.82 666.72 586.22 683.79C585.72 685.31 585.41 687.31 584.3 688.11C582.5 689.42 580.08 690.65 577.98 690.56C576.48 690.49 574.37 688.46 573.77 686.85C571.17 679.82 569.03 672.61 566.73 665.47C564.1 657.3 561.46 649.15 558.91 640.96C558.23 638.76 557.91 636.45 557.24 633.33" fill="black"/>
<path d="M353.99 679.65V688.62C359.01 688.14 363.62 687.71 368.82 687.21C369.02 689.91 369.32 691.96 369.28 694.01C369.15 700.64 369.1 700.64 362.91 701.91C360.29 702.44 357.66 702.95 355.04 703.49C354.79 703.54 354.55 703.7 353.42 704.19C353.31 708.25 353.14 712.73 353.07 717.22C352.92 725.99 352.31 726.67 343.54 727.34C342.51 727.42 341.45 727.25 339.89 727.18C339.55 725.31 338.92 723.57 338.96 721.84C339.3 705.49 339.85 689.14 340.12 672.8C340.19 668.61 341.5 666.41 345.92 665.86C354.87 664.74 363.78 663.22 373.25 661.77C373.58 664.61 373.96 666.38 373.95 668.15C373.92 675.33 373.44 675.87 366.59 677.06C363.42 677.61 360.24 678.06 357.07 678.61C356.29 678.75 355.56 679.11 353.98 679.66" fill="black"/>
<path d="M507.66 655.81C507.66 664.2 507.67 672.5 507.66 680.8C507.66 684.29 507.66 687.78 507.51 691.27C507.02 702.74 506.47 703.22 493.56 702.85C493.09 688.1 493.77 673.24 493.67 658.03H480.99V645.44C493.92 641.95 507.38 640.8 520.85 638.7C522.8 643.44 523.71 648.48 520.73 651.3C517.98 653.92 512.95 654.13 507.66 655.8" fill="black"/>
<path d="M674.02 615.33V661.15C679.84 660.58 685.18 660.05 691.05 659.47C691.25 662.67 691.39 665.01 691.54 667.34C691.82 671.55 690.04 673.66 685.67 674.19C677.5 675.16 669.38 676.56 660.32 677.92C660.01 674.86 659.56 672.61 659.61 670.36C659.9 655.39 660.28 640.42 660.68 625.45C660.92 616.68 660.96 616.67 669.5 615.54C670.76 615.38 672.05 615.41 674.02 615.33Z" fill="black"/>
<path d="M533.73 637.05C538.55 636.38 542.38 635.85 546.75 635.24C547.01 638.14 547.39 640.22 547.36 642.3C547.09 656.98 546.71 671.67 546.43 686.35C546.22 696.96 545.1 697.92 532.28 696.94C532.75 677.41 533.23 657.83 533.73 637.05Z" fill="black"/>
</g>
<defs>
<clipPath id="clip0_3214_16827">
<rect width="950" height="727.35" fill="white"/>
</clipPath>
</defs>
</svg>
