<svg width="284" height="217" viewBox="0 0 284 217" fill="none" xmlns="http://www.w3.org/2000/svg">
<g opacity="0.25" clip-path="url(#clip0_3214_16827)">
<path d="M98.0488 86.5496C98.2072 78.1422 98.3626 69.7349 98.5271 61.3276C98.542 60.6086 98.56 59.8806 98.6586 59.1706C98.9247 57.2463 99.7348 56.2946 101.69 55.9753C107.705 54.9938 113.72 54.0003 119.761 53.2097C121.63 52.9651 123.621 53.156 125.495 53.4931C131.062 54.4985 134.804 57.837 136.35 63.2042C138.786 71.6652 137.076 79.4132 131.247 86.0483C129.818 87.6743 129.534 88.984 130.227 90.9531C131.848 95.5565 133.262 100.232 134.757 104.88C134.978 105.566 135.235 106.243 135.399 106.941C135.961 109.331 135.148 110.697 132.754 111.13C130.153 111.601 127.531 111.986 124.903 112.297C122.613 112.568 121.875 112.079 121.119 109.898C120.069 106.873 119.095 103.824 118.084 100.784C117.504 99.0352 116.939 97.2839 116.317 95.5506C115.72 93.8858 115.456 93.7665 113.636 94.0589C111.726 94.3661 111.495 94.5392 111.454 96.2397C111.364 99.9213 111.346 103.606 111.277 107.29C111.25 108.731 111.241 110.178 111.089 111.607C110.88 113.565 110.04 114.573 108.165 114.925C105.648 115.402 103.104 115.796 100.557 116.074C98.2879 116.321 97.4568 115.554 97.4718 113.212C97.4987 109.128 97.702 105.047 97.7468 100.963C97.7976 96.1592 97.7588 91.3529 97.7588 86.5466C97.8544 86.5466 97.9501 86.5466 98.0458 86.5466M104.156 89.5211C103.992 88.7603 103.863 88.456 103.866 88.1517C103.965 81.9073 104.061 75.663 104.204 69.4217C104.24 67.8046 104.452 67.5749 106.177 67.2676C108.781 66.8052 111.4 66.4352 114.016 66.0444C115.681 65.7968 117.343 65.4746 119.02 65.3761C122.664 65.1643 124.966 67.1125 125.486 70.6986C126.245 75.9464 123.02 80.4514 117.797 81.4091C116.536 81.6388 115.268 81.9133 113.992 81.97C110.924 82.1132 109.507 84.2642 107.684 86.8956C112.73 86.3944 117.22 85.5292 121.773 84.6491C122.12 85.6307 122.404 86.3676 122.64 87.1194C124.748 93.8351 126.843 100.557 128.957 107.272C129.668 109.534 129.851 109.638 132.206 109.245C132.646 109.17 133.061 108.931 133.662 108.702C133.378 107.669 133.154 106.756 132.873 105.858C130.634 98.6802 128.428 91.4901 126.096 84.3418C125.549 82.6651 125.648 81.3972 126.709 79.9234C129.259 76.385 130.195 72.4111 129.181 68.0911C128.225 63.9948 125.178 61.432 120.99 61.2441C119.875 61.1934 118.739 61.262 117.636 61.4261C112.721 62.154 107.812 62.9357 102.904 63.6965C100.59 64.0545 100.384 64.2544 100.327 66.5904C100.204 71.7129 100.114 76.8355 100.01 81.958C99.8066 91.8034 99.5973 101.649 99.412 111.491C99.397 112.32 99.5345 113.156 99.5943 113.943C103.029 114.108 103.289 113.923 103.367 110.957C103.499 105.915 103.564 100.873 103.678 95.831C103.723 93.8321 103.833 93.6889 105.812 93.3548C108.895 92.8386 112.01 92.4955 115.071 91.872C117.447 91.3887 117.579 92.0212 118.129 93.7605C119.693 98.722 121.28 103.671 122.888 108.618C123.477 110.432 123.6 110.501 125.459 110.271C126.132 110.187 126.787 109.946 127.662 109.722C125.181 102.022 122.787 94.5869 120.347 87.012C117.543 87.4446 114.951 87.8444 112.359 88.2441C109.69 88.6559 107.017 89.0735 104.153 89.5151M111.971 80.353C114.416 79.9323 116.658 79.7384 118.787 79.1387C122.225 78.1691 124.204 74.7352 123.579 71.2863C123.104 68.6669 121.582 67.2885 118.948 67.3989C117.035 67.4824 115.134 67.8434 113.229 68.1149C112.398 68.2343 111.974 68.7713 111.974 69.6096C111.971 73.0316 111.974 76.4536 111.974 80.35M130.123 57.6013C128.9 56.9539 128.114 56.4139 127.247 56.1006C124.568 55.131 121.797 54.8178 118.963 55.2384C116.108 55.6591 113.256 56.0798 110.407 56.5243C107.717 56.942 105.023 57.3626 102.345 57.834C100.775 58.1085 100.491 58.4695 100.467 60.0567C100.458 60.5907 100.62 61.1277 100.721 61.7572C101.463 61.7572 102.094 61.8348 102.703 61.7453C106.428 61.2023 110.153 60.6534 113.869 60.0447C118.069 59.3585 122.255 58.4546 126.341 60.5997C126.703 60.7906 127.504 60.6026 127.839 60.3013C128.586 59.6241 129.166 58.7648 130.126 57.5983M128.948 85.6277C136.643 79.8816 137.366 64.0933 131.561 59.5614C131.067 59.9702 130.526 60.4027 130.003 60.8532C129.014 61.7035 128.903 62.5568 129.579 63.783C132.607 69.2695 132.021 74.765 128.978 79.9741C127.806 81.976 127.677 83.6079 128.948 85.6247M109.472 95.0852C105.974 94.9032 105.618 95.2105 105.555 98.0358C105.466 102.201 105.352 106.366 105.28 110.527C105.268 111.363 105.406 112.198 105.469 112.992C108.847 113.21 109.226 112.914 109.283 110.074C109.361 106.151 109.409 102.225 109.466 98.3013C109.481 97.278 109.466 96.2547 109.466 95.0852M109.851 69.0249C106.41 68.8011 106.123 69.0517 106.067 72.1575C105.998 75.9196 105.929 79.6817 105.89 83.4438C105.887 83.9301 106.073 84.4194 106.237 85.2189C107.738 83.5273 109.663 82.4354 109.785 80.4275C110.019 76.6953 109.851 72.9391 109.851 69.0219" fill="black"/>
<path d="M204.985 139.189C205.135 130.943 205.287 122.694 205.44 114.448C205.449 113.967 205.467 113.487 205.493 113.007C205.679 109.713 206.468 108.883 209.804 108.379C214.561 107.66 219.305 106.822 224.076 106.228C226.199 105.963 228.435 105.864 230.53 106.222C237.209 107.359 241.669 112.296 242.808 119.573C243.104 121.465 243.271 123.398 243.248 125.31C243.176 131.155 243.056 137.002 242.814 142.844C242.632 147.224 241.43 151.37 239.197 155.168C235.421 161.583 229.801 165.312 222.456 166.467C217.625 167.224 212.788 167.955 207.954 168.695C205.374 169.092 204.384 168.293 204.402 165.616C204.429 162.174 204.629 158.731 204.659 155.288C204.704 149.924 204.671 144.556 204.671 139.192C204.779 139.192 204.884 139.192 204.988 139.192M214.318 159.384C214.889 159.468 215.188 159.578 215.463 159.539C217.921 159.172 220.372 158.772 222.829 158.399C227.352 157.71 230.644 155.282 232.853 151.332C234.452 148.468 235.077 145.356 235.143 142.11C235.245 137.148 235.385 132.187 235.448 127.226C235.466 125.791 235.376 124.341 235.173 122.923C234.264 116.581 230.013 113.332 223.699 114.215C219.099 114.859 214.51 115.629 209.927 116.384C207.341 116.81 207.326 116.846 207.269 119.406C207.159 124.29 207.075 129.171 206.976 134.052C206.767 144.216 206.543 154.381 206.351 164.545C206.307 166.831 206.405 166.914 208.635 166.589C213.395 165.894 218.151 165.178 222.898 164.42C226.704 163.814 230.103 162.284 233.044 159.778C235.325 157.833 235.31 157.478 232.865 155.732C232.745 155.649 232.563 155.655 232.297 155.592C232.031 155.762 231.651 155.923 231.376 156.195C228.749 158.766 225.556 160.082 221.942 160.53C220.034 160.768 218.136 161.094 216.235 161.383C214.441 161.657 212.647 161.938 210.599 162.254C210.534 161.177 210.441 160.404 210.45 159.629C210.483 156.427 210.543 153.226 210.605 150.025C210.776 140.902 210.949 131.775 211.129 122.652C211.173 120.358 211.311 120.197 213.481 119.854C216.964 119.302 220.447 118.75 223.939 118.245C227.158 117.78 229.705 119.2 230.71 122.282C231.221 123.845 231.403 125.573 231.412 127.229C231.436 132.271 231.328 137.316 231.215 142.358C231.185 143.631 231.036 144.917 230.787 146.167C229.819 151.069 226.841 153.82 221.861 154.524C221.385 154.593 220.91 154.739 220.435 154.742C217.311 154.763 215.998 157.06 214.321 159.384M218.483 152.985C219.879 152.814 221.051 152.656 222.229 152.525C225.562 152.155 227.633 150.249 228.581 147.14C228.973 145.854 229.206 144.482 229.248 143.139C229.403 137.942 229.508 132.742 229.502 127.545C229.502 126.056 229.278 124.493 228.784 123.094C228.025 120.919 226.357 120.018 224.076 120.215C223.039 120.304 222.007 120.462 220.985 120.656C218.967 121.038 218.943 121.056 218.898 123.123C218.701 132.321 218.519 141.519 218.345 150.717C218.333 151.406 218.429 152.098 218.486 152.988M236.671 155.541C237.176 154.79 237.744 154.202 238.013 153.498C238.892 151.191 240.076 148.897 240.393 146.499C241.448 138.479 241.322 130.388 241.218 122.312C241.209 121.599 241.038 120.886 240.916 120.176C239.765 113.526 235.69 109.128 229.55 108.141C227.914 107.875 226.178 107.893 224.53 108.114C219.61 108.77 214.707 109.585 209.801 110.348C207.703 110.676 207.332 111.094 207.41 113.147C207.428 113.588 207.658 114.024 207.852 114.665C210.692 114.239 213.445 113.818 216.202 113.415C219.293 112.965 222.372 112.344 225.478 112.129C230.976 111.748 234.985 114.528 236.488 119.797C237.095 121.918 237.322 124.206 237.334 126.42C237.361 131.698 237.17 136.978 237.044 142.256C236.97 145.413 236.273 148.432 234.925 151.299C233.75 153.799 233.774 153.853 236.668 155.544M216.812 121.73C213.831 121.348 213.084 121.784 213.039 123.989C212.821 134.702 212.635 145.419 212.459 156.135C212.45 156.612 212.641 157.09 212.818 157.955C213.831 156.8 214.546 155.95 215.302 155.139C216.115 154.27 216.402 153.268 216.42 152.084C216.566 142.647 216.761 133.213 216.925 123.777C216.937 123.085 216.85 122.386 216.812 121.73Z" fill="black"/>
<path d="M142.798 147.772C142.61 152.179 142.562 156.672 142.185 161.135C141.758 166.192 139.958 170.822 136.688 174.743C131.435 181.038 124.688 183.967 116.467 182.962C110.966 182.288 107.283 179.084 105.101 174.083C103.696 170.861 103.295 167.445 103.337 163.984C103.412 157.818 103.49 151.651 103.726 145.49C104.007 138.196 106.24 131.608 111.729 126.524C116.963 121.679 123.187 119.573 130.323 120.743C135.106 121.524 138.481 124.311 140.637 128.574C142.146 131.557 142.774 134.765 142.795 138.094C142.816 141.298 142.798 144.5 142.798 147.781M131.806 172.299C131.13 172.795 130.541 173.188 129.997 173.633C127.833 175.402 125.355 176.461 122.616 176.938C116.619 177.98 111.675 175.005 110.037 169.164C109.504 167.266 109.313 165.22 109.307 163.242C109.283 157.475 109.4 151.708 109.525 145.944C109.594 142.727 110.013 139.556 111.34 136.573C113.597 131.504 117.274 128.082 122.787 126.847C129.48 125.346 134.843 128.658 136.383 135.326C136.774 137.023 136.936 138.813 136.927 140.559C136.903 145.842 136.712 151.129 136.655 156.412C136.604 160.944 136.194 165.375 133.767 169.37C133.268 170.196 133.435 170.912 134.224 171.452C134.733 171.798 135.283 172.081 135.782 172.374C136.114 172.132 136.359 172.031 136.481 171.849C136.843 171.321 137.181 170.778 137.483 170.214C139.617 166.249 140.508 161.971 140.601 157.507C140.721 151.663 140.813 145.815 140.894 139.971C140.945 136.409 140.508 132.933 138.825 129.72C136.756 125.767 133.564 123.365 129.094 122.694C121.316 121.524 113.238 125.573 109.05 132.781C106.954 136.385 105.842 140.305 105.69 144.437C105.445 151.078 105.319 157.725 105.253 164.372C105.223 167.511 105.738 170.602 107.119 173.475C109.095 177.58 112.282 180.241 116.829 180.886C122.595 181.7 127.809 180.199 132.317 176.467C132.963 175.933 133.468 175.232 134.177 174.459C133.286 173.648 132.601 173.021 131.803 172.296M135.011 148.545C135.011 146.576 135.07 143.452 134.984 140.332C134.945 138.825 134.798 137.28 134.416 135.827C133.441 132.154 131.262 129.475 127.349 128.789C123.208 128.064 119.576 129.341 116.566 132.25C116.252 132.554 116.069 133.315 116.219 133.715C116.751 135.135 118.195 135.46 119.483 134.601C120.213 134.114 120.936 133.583 121.737 133.243C125.648 131.593 129.283 133.249 130.502 137.292C130.867 138.5 131.014 139.804 131.059 141.072C131.133 143.232 131.076 145.395 131.023 147.558C130.915 151.961 130.915 156.374 130.604 160.762C130.29 165.169 128.589 168.88 124.075 170.53C120.24 171.929 116.862 170.291 115.74 166.401C115.262 164.742 115.086 162.919 115.175 161.192C115.579 153.545 114.476 145.806 116.566 138.255C116.793 137.435 115.633 135.985 114.694 135.761C113.436 135.463 113.247 136.537 112.933 137.298C111.914 139.774 111.54 142.387 111.483 145.043C111.358 150.887 111.25 156.732 111.182 162.576C111.167 163.853 111.229 165.148 111.427 166.407C112.288 171.908 116.192 175.357 121.229 175.023C125.274 174.758 128.634 173.06 131.136 169.826C133.154 167.221 134.302 164.25 134.505 160.977C134.742 157.224 134.819 153.459 135.014 148.542M128.754 151.033H129.181C129.181 147.993 129.244 144.95 129.154 141.913C129.115 140.57 128.96 139.174 128.523 137.918C127.498 134.979 124.724 133.938 121.887 135.257C120.198 136.042 118.978 137.348 118.422 139.064C117.887 140.717 117.471 142.474 117.412 144.201C117.205 150.279 117.131 156.362 117.116 162.442C117.116 163.683 117.391 165.008 117.872 166.153C118.882 168.567 121.125 169.423 123.642 168.615C125.25 168.096 126.595 167.129 127.238 165.628C127.946 163.969 128.559 162.168 128.694 160.389C128.927 157.287 128.76 154.154 128.76 151.036" fill="black"/>
<path d="M192.866 140.672C192.704 144.47 192.657 148.96 192.283 153.426C191.858 158.483 190.059 163.113 186.794 167.037C181.548 173.338 174.8 176.264 166.579 175.271C161.076 174.606 157.387 171.407 155.205 166.407C153.764 163.11 153.384 159.617 153.435 156.07C153.518 150.064 153.605 144.055 153.811 138.056C154.063 130.672 156.263 124.001 161.811 118.842C167.04 113.985 173.267 111.888 180.403 113.045C185.186 113.818 188.564 116.602 190.725 120.862C192.122 123.616 192.812 126.578 192.857 129.66C192.908 133.103 192.869 136.546 192.869 140.675M185.853 164.722C186.244 164.417 186.477 164.307 186.606 164.125C186.929 163.668 187.228 163.191 187.494 162.702C189.61 158.823 190.573 154.635 190.684 150.255C190.836 144.172 190.917 138.082 190.991 131.999C191.03 128.935 190.648 125.934 189.425 123.076C187.054 117.545 182.044 114.373 176.047 114.785C168.224 115.325 162.403 119.075 158.678 125.964C156.619 129.774 155.802 133.918 155.707 138.217C155.581 143.9 155.426 149.587 155.363 155.27C155.342 157.105 155.462 158.958 155.713 160.771C156.613 167.24 160.583 172.025 166.257 173.057C172.642 174.218 178.334 172.484 183.159 168.102C183.542 167.753 183.76 167.222 184.155 166.625C183.368 165.924 182.675 165.306 181.88 164.596C181.195 165.103 180.609 165.503 180.062 165.951C177.898 167.717 175.413 168.77 172.675 169.238C166.681 170.265 161.76 167.266 160.116 161.425C159.623 159.677 159.405 157.797 159.402 155.977C159.39 149.971 159.494 143.963 159.629 137.96C159.701 134.825 160.146 131.737 161.447 128.831C163.713 123.768 167.402 120.355 172.914 119.132C179.611 117.646 184.947 120.972 186.486 127.655C186.86 129.278 187.03 130.982 187.024 132.65C187.004 137.853 186.824 143.059 186.764 148.262C186.711 152.946 186.376 157.552 183.847 161.696C183.341 162.526 183.572 163.233 184.343 163.77C184.797 164.083 185.276 164.358 185.847 164.71M185.105 141C185.105 139.01 185.171 135.806 185.075 132.605C185.03 131.018 184.869 129.389 184.439 127.87C183.431 124.302 181.231 121.724 177.422 121.077C173.282 120.37 169.65 121.638 166.645 124.559C166.334 124.86 166.164 125.627 166.319 126.026C166.875 127.45 168.292 127.757 169.59 126.88C170.251 126.432 170.902 125.943 171.623 125.618C175.59 123.825 179.356 125.474 180.597 129.607C180.959 130.815 181.105 132.119 181.147 133.387C181.222 135.547 181.165 137.71 181.111 139.873C181.001 144.276 181.004 148.689 180.69 153.077C180.376 157.484 178.66 161.192 174.143 162.833C170.307 164.223 166.938 162.573 165.82 158.677C165.345 157.018 165.171 155.195 165.261 153.468C165.665 145.821 164.565 138.079 166.654 130.531C166.878 129.723 165.686 128.276 164.762 128.049C163.653 127.781 163.405 128.679 163.103 129.392C162.026 131.937 161.629 134.625 161.569 137.363C161.444 143.208 161.339 149.053 161.264 154.897C161.249 156.096 161.315 157.305 161.479 158.489C162.254 164.092 166.218 167.669 171.336 167.323C175.38 167.049 178.738 165.345 181.237 162.111C183.249 159.504 184.391 156.529 184.597 153.256C184.827 149.584 184.908 145.899 185.102 141.003M178.836 143.169H179.267C179.267 140.129 179.359 137.083 179.225 134.049C179.159 132.563 178.872 131.015 178.319 129.642C177.509 127.623 175.811 126.82 173.65 127.083C171.584 127.333 170.149 128.521 169.058 130.224C167.796 132.193 167.506 134.413 167.455 136.662C167.327 142.662 167.192 148.665 167.204 154.664C167.207 156.052 167.575 157.534 168.152 158.805C169.058 160.807 171.052 161.583 173.189 161.073C174.998 160.64 176.531 159.65 177.276 157.988C178.011 156.344 178.633 154.536 178.765 152.761C179.001 149.581 178.83 146.367 178.83 143.169" fill="black"/>
<path d="M210.088 53.0664V62.7685C211.132 62.682 212.139 62.6492 213.132 62.506C216.148 62.0704 219.149 61.5245 222.172 61.1515C224.617 60.8472 225.433 61.5901 225.445 64.0395C225.46 66.4411 225.406 68.8458 225.263 71.2445C225.107 73.8192 224.184 74.75 221.586 75.1647C218.339 75.6808 215.087 76.1552 211.837 76.6713C211.144 76.7817 210.462 76.9876 209.637 77.1815V84.9414C211.664 84.6759 213.544 84.4611 215.416 84.1777C218.746 83.6735 222.067 83.1215 225.397 82.6054C227.906 82.2146 228.847 82.9783 228.874 85.4933C228.898 87.7369 228.874 89.9804 228.805 92.221C228.722 95.1418 227.783 96.2307 224.85 96.6932C217.326 97.8806 209.792 99.0202 202.262 100.178C201.153 100.348 200.047 100.56 198.932 100.673C196.277 100.942 195.544 100.324 195.556 97.6837C195.577 92.9579 195.64 88.2321 195.742 83.5064C196.011 70.7731 196.31 58.0398 196.597 45.3065C196.603 45.0649 196.597 44.8262 196.609 44.5845C196.719 41.9919 197.562 40.9596 200.106 40.527C203.9 39.8826 207.706 39.3009 211.511 38.7101C216.345 37.9583 221.182 37.2304 226.016 36.4755C228.982 36.0131 229.831 36.7053 229.834 39.7036C229.834 41.625 229.81 43.5493 229.774 45.4706C229.708 49.0418 228.868 50.0352 225.406 50.5782C221.048 51.2644 216.686 51.9118 212.327 52.5891C211.631 52.6965 210.946 52.8844 210.088 53.0694M226.566 90.601C225.789 90.6428 225.08 90.6159 224.396 90.7233C217.819 91.7436 211.251 92.7998 204.671 93.8082C203.694 93.9573 202.686 93.9096 201.58 93.9603C201.532 92.9489 201.458 92.2419 201.476 91.5348C201.559 87.6116 201.652 83.6884 201.769 79.7652C201.873 76.197 201.263 76.3432 205.449 75.6898C210.755 74.8604 216.067 74.0638 221.377 73.2285C223.06 72.9629 223.403 72.5453 223.403 70.8477C223.403 70.3166 223.221 69.7856 223.098 69.1412C222.516 69.1412 222.04 69.0815 221.586 69.1501C216.276 69.9676 210.973 70.8208 205.664 71.6264C204.522 71.7994 203.359 71.8292 201.936 71.9456C201.936 70.8208 201.921 70.0392 201.936 69.2575C202.044 64.3736 202.154 59.4897 202.277 54.6059C202.334 52.2579 202.444 52.1207 204.851 51.7418C208.256 51.2048 211.667 50.7065 215.075 50.1874C218.563 49.6564 222.055 49.1462 225.535 48.5734C227.571 48.2362 227.938 47.7231 227.798 45.6735C227.771 45.2976 227.586 44.9306 227.421 44.3876C226.587 44.4532 225.798 44.4682 225.024 44.5845C217.021 45.8167 209.018 47.0697 201.018 48.3078C198.636 48.6778 198.477 48.7762 198.426 51.154C198.103 66.286 197.805 81.421 197.509 96.5529C197.497 97.2391 197.619 97.9283 197.682 98.6473C198.468 98.6473 199.033 98.7189 199.574 98.6354C206.073 97.6359 212.567 96.6096 219.063 95.5982C220.964 95.3029 222.874 95.0612 224.77 94.7271C226.623 94.3989 226.892 94.0409 226.853 92.1554C226.844 91.6989 226.689 91.2454 226.563 90.598M198.719 46.5625C199.855 46.4521 200.722 46.4104 201.577 46.2791C206.952 45.4616 212.324 44.6263 217.699 43.7909C220.465 43.3613 223.23 42.9436 225.992 42.4782C227.711 42.1888 228.163 41.4579 227.917 39.5664C227.762 38.3641 227.541 38.2507 225.589 38.5431C220.767 39.2621 215.942 39.987 211.12 40.7329C207.643 41.2699 204.169 41.8219 200.698 42.4096C198.654 42.7557 198.483 43.0033 198.519 45.0589C198.525 45.4378 198.615 45.8167 198.716 46.5595M205.266 91.6333C207 91.4006 208.229 91.2544 209.452 91.0664C214.668 90.2668 219.888 89.4733 225.095 88.6379C226.77 88.3694 227.227 87.5668 226.961 85.6873C226.796 84.5357 226.602 84.4312 224.581 84.7296C220.232 85.374 215.903 86.2094 211.532 86.6629C208.459 86.9821 207.093 89.0228 205.266 91.6333ZM223.311 63.055C222.172 63.1504 221.302 63.1773 220.444 63.3026C217.523 63.7352 214.62 64.3199 211.688 64.6272C208.734 64.9375 207.484 67.0498 205.7 69.5529C207.481 69.3082 208.722 69.1561 209.957 68.9651C213.822 68.3714 217.69 67.7986 221.544 67.1452C223.317 66.8439 223.487 66.5575 223.511 64.7704C223.517 64.314 223.406 63.8545 223.308 63.055M204.196 67.8076C206.354 65.9161 208.259 64.2841 208.002 61.3216C207.927 60.4504 208.034 59.5643 208.04 58.6872C208.049 57.0344 208.04 55.3816 208.04 53.6034C207.051 53.6034 206.345 53.5467 205.652 53.6184C204.74 53.7138 204.196 54.2538 204.196 55.2055C204.19 59.257 204.196 63.3056 204.196 67.8105M207.407 77.7334C203.981 77.5395 203.736 77.7334 203.628 80.6781C203.538 83.1543 203.485 85.6306 203.455 88.1068C203.449 88.5931 203.619 89.0824 203.798 90.058C205.26 88.3127 207.114 87.3282 207.335 85.4396C207.628 82.9425 207.407 80.3857 207.407 77.7334Z" fill="black"/>
<path d="M162.989 70.4029C165.949 69.9584 168.55 69.5705 171.147 69.1738C172.496 68.9679 173.832 68.6934 175.183 68.5323C177.491 68.2578 178.382 68.9679 178.412 71.2174C178.445 73.7802 178.394 76.3429 178.289 78.9027C178.2 81.0418 177.3 82.086 175.123 82.4799C171.575 83.1213 167.999 83.6255 164.445 84.2311C162.654 84.5354 162.583 84.616 162.538 86.3434C162.487 88.2468 162.526 90.1503 162.526 92.2625C163.21 92.2625 163.742 92.3312 164.254 92.2506C168.612 91.5823 172.965 90.8902 177.321 90.201C181.312 89.5715 181.999 90.1801 181.895 94.2555C181.844 96.2574 181.85 98.2622 181.754 100.258C181.64 102.561 180.735 103.647 178.481 104.008C169.536 105.437 160.586 106.837 151.632 108.203C149.542 108.522 148.514 107.594 148.535 105.309C148.571 100.747 148.75 96.1858 148.84 91.6211C149.088 79.0519 149.324 66.4827 149.566 53.9135C149.572 53.5137 149.59 53.1109 149.611 52.7141C149.785 49.0803 150.508 48.3375 154.131 47.7855C161.976 46.5892 169.817 45.3481 177.658 44.1368C178.609 43.9906 179.569 43.8354 180.525 43.8354C181.972 43.8354 182.732 44.3814 182.758 45.7896C182.818 48.9073 182.797 52.0369 182.549 55.1427C182.409 56.8731 180.956 57.61 179.315 57.8606C175.114 58.508 170.917 59.1524 166.72 59.8117C162.337 60.4979 163.109 60.2234 163.001 64.0393C162.944 66.0203 162.992 68.0072 162.992 70.3999M155.435 79.5382C155.207 78.9624 155.046 78.7446 155.049 78.5268C155.109 72.7628 155.193 67.0018 155.264 61.2408C155.279 59.9281 156.048 59.4746 157.24 59.3075C160.334 58.872 163.42 58.3618 166.505 57.8815C170.621 57.243 174.744 56.6165 178.854 55.9542C180.522 55.6856 180.741 55.4201 180.77 53.7882C180.782 53.1885 180.633 52.5829 180.546 51.8758C179.975 51.8758 179.584 51.8251 179.21 51.8818C170.816 53.1796 162.421 54.4744 154.033 55.808C151.462 56.2167 151.45 56.2644 151.393 58.8421C151.282 63.723 151.199 68.6039 151.1 73.4878C150.891 83.6494 150.666 93.8139 150.475 103.978C150.433 106.261 150.526 106.335 152.774 106.01C157.533 105.318 162.284 104.587 167.037 103.853C170.678 103.292 174.322 102.725 177.957 102.12C179.631 101.842 179.808 101.616 179.82 99.93C179.826 99.3333 179.67 98.7336 179.557 97.8893C171.228 99.1602 163.112 100.398 154.923 101.648C154.759 101.037 154.571 100.661 154.574 100.288C154.625 95.3265 154.714 90.3651 154.765 85.4006C154.777 84.0939 155.488 83.5688 156.681 83.3988C158.902 83.0855 161.121 82.7364 163.336 82.3933C167.058 81.8146 170.783 81.2626 174.496 80.6212C176.235 80.3228 176.349 80.12 176.4 78.4433C176.415 77.9092 176.301 77.3692 176.223 76.6174C172.645 76.6473 169.312 77.5005 165.94 77.9838C162.46 78.4821 158.986 79.0101 155.432 79.5382M180.794 45.8194C179.802 45.8881 179.016 45.8821 178.247 45.9984C170.185 47.2366 162.128 48.4986 154.068 49.7486C151.42 50.1603 150.876 51.2911 152.134 53.9463C152.496 53.9463 152.897 53.997 153.282 53.9403C159.763 52.9409 166.242 51.9325 172.72 50.9181C174.932 50.572 177.138 50.1872 179.353 49.862C180.403 49.7068 180.926 49.137 180.929 48.1077C180.929 47.4126 180.851 46.7174 180.794 45.8194ZM179.548 92.0835C179.025 92.0835 178.463 92.0119 177.924 92.0955C173.177 92.8294 168.433 93.5753 163.695 94.3509C161.551 94.7 159.551 96.5945 158.795 98.9812C159.228 98.9514 159.617 98.9514 159.997 98.8917C165.853 98.0086 171.712 97.1285 177.566 96.2186C180.119 95.8218 180.54 94.9238 179.551 92.0835M159.013 76.3698C159.103 76.5756 159.192 76.7785 159.282 76.9844C160.908 76.7338 162.535 76.4802 164.161 76.2326C167.56 75.7164 170.962 75.2152 174.361 74.6842C176.265 74.3858 176.481 74.1382 176.487 72.2049C176.487 71.6828 176.31 71.1577 176.22 70.6565C175.838 70.5849 175.599 70.4745 175.377 70.5073C171.425 71.104 167.47 71.6918 163.527 72.3511C162.935 72.4496 162.287 72.7777 161.862 73.1954C160.852 74.1889 159.958 75.3047 159.016 76.3698M160.935 61.0618C157.611 60.8858 157.198 61.2199 157.151 64.0064C157.094 67.2106 157.055 70.4149 157.04 73.6191C157.04 74.1024 157.213 74.5887 157.306 75.072C157.474 75.1227 157.641 75.1705 157.808 75.2212C158.849 73.7444 160.547 72.366 160.795 70.7639C161.27 67.6522 160.935 64.4152 160.935 61.0618ZM156.583 97.4567C158.382 96.0038 159.97 94.8581 160.311 93.2143C160.852 90.6038 160.663 87.8679 160.463 85.2246C157.198 84.9143 156.714 85.2903 156.66 88.0171C156.619 90.1741 156.607 92.3312 156.586 94.4852C156.577 95.3206 156.586 96.1559 156.586 97.4537" fill="black"/>
<path d="M37.3176 106.64C37.1263 117.028 30.7886 126.124 21.4824 129.177C18.2059 130.251 14.8607 130.54 11.5125 129.776C3.44686 127.935 -0.251114 120.814 0.01196 114.113C0.0807179 112.383 0.639749 111.485 2.27798 111.154C5.25849 110.551 8.27487 110.089 11.2972 109.745C12.8996 109.563 13.4048 110.083 13.5782 111.81C13.7755 113.776 14.6395 115.142 16.5587 115.73C18.457 116.312 20.0325 115.608 21.3927 114.34C23.3837 112.481 24.1161 108.85 23.0578 106.323C22.2895 104.486 20.7679 103.704 18.6125 103.799C16.7022 103.886 14.7381 104.035 12.8787 103.704C6.532 102.576 2.38859 98.0265 1.60834 91.636C0.18236 79.9528 7.952 69.5526 19.587 67.673C22.8934 67.139 26.1489 67.4552 29.2191 68.944C34.0172 71.2681 37.0276 76.3668 36.7107 81.6474C36.5971 83.5121 35.9155 84.425 34.0262 84.789C31.2699 85.3171 28.4957 85.7556 25.7184 86.1345C24.0384 86.3642 23.5272 85.9078 23.0429 84.1684C22.5526 82.4052 21.7933 81.8145 19.9846 81.7817C17.4256 81.7399 15.3569 83.4465 15.1028 85.8123C14.8099 88.5243 16.3494 90.0279 19.0997 89.8579C20.8516 89.7475 22.6483 89.5655 24.3672 89.8191C30.7139 90.7588 35.2758 95.1176 36.633 101.422C37.0007 103.131 37.0994 104.897 37.3206 106.64M11.5274 111.78C10.8936 111.78 10.4213 111.726 9.96392 111.789C7.98788 112.064 7.62615 112.574 7.96695 114.495C8.85781 119.489 12.7441 122.401 17.8232 121.924C20.1371 121.709 22.1909 120.859 23.9696 119.412C28.4897 115.727 30.11 110.912 29.1205 105.264C28.2236 100.151 24.7768 97.5163 19.608 97.7192C18.4062 97.7669 17.1984 97.9012 16.0027 97.8385C11.8323 97.6297 8.74122 95.058 7.71882 91.0393C5.77567 83.3838 10.9564 75.236 18.756 73.8219C22.3075 73.1775 25.6527 73.6399 28.3312 76.3906C29.7273 77.8227 30.3731 79.6038 30.7647 81.5251C31.1115 83.2287 31.2699 83.3032 32.7736 83.0497C34.4357 82.7692 34.7317 82.4291 34.651 80.8897C34.364 75.4389 30.5315 71.0026 25.2043 69.845C22.6213 69.2841 20.0952 69.49 17.5811 70.1254C9.80548 72.1005 1.92223 79.4337 3.54253 91.5465C4.26 96.9047 7.94901 100.789 13.3061 101.771C15.1626 102.111 17.1327 101.956 19.0429 101.872C21.7096 101.753 23.5571 102.639 24.6422 104.763C26.8216 109.026 24.8126 115.136 20.5437 117.237C16.6065 119.173 12.8398 117.452 11.7845 113.227C11.6888 112.842 11.644 112.442 11.5244 111.774M11.2285 81.0179C10.8787 81.5818 10.3286 82.1248 10.1881 82.7573C9.78156 84.613 9.26438 86.5075 9.28531 88.384C9.33314 92.7906 12.5767 95.8456 16.9862 95.9112C18.188 95.9291 19.3897 95.78 20.5915 95.7561C25.8739 95.6547 29.7991 98.7903 30.947 103.949C31.5898 106.843 31.4732 109.686 30.4149 112.448C29.814 114.015 29.0995 115.539 28.3432 117.037C27.8679 117.98 27.9127 118.729 28.7856 119.334C29.2849 119.68 29.8409 119.949 30.2654 120.193C30.6032 120.011 30.7736 119.967 30.8783 119.856C31.1025 119.633 31.3237 119.394 31.4941 119.128C34.8543 113.907 36.1128 108.266 34.7347 102.159C33.4403 96.4304 29.2281 92.4475 23.5481 91.6956C21.9039 91.4779 20.1939 91.6927 18.5168 91.7822C15.046 91.9671 12.8697 89.7206 13.2344 86.2628C13.2763 85.866 13.3779 85.4752 13.4706 85.0873C14.0655 82.5842 13.9698 82.3903 11.2225 81.0179M26.2835 120.152C22.2925 122.959 18.1909 125.134 13.2434 123.657C7.94004 122.076 6.20914 117.831 5.70691 112.935C2.30489 112.448 1.65617 113.045 2.04181 116.082C2.80114 122.046 6.78013 126.626 12.5289 127.771C18.5497 128.971 23.7095 126.906 28.2774 123.075C28.4299 122.947 28.4389 122.646 28.5853 122.21C27.8828 121.581 27.1355 120.912 26.2835 120.149M25.3926 84.1058C25.9008 84.0551 26.2924 84.0461 26.6751 83.9775C28.7707 83.6076 29.0786 83.1362 28.4987 81.0687C27.829 78.6789 26.3313 76.9993 23.9816 76.1639C20.7051 74.9944 17.6738 75.782 14.8278 77.5094C14.2717 77.8465 13.4347 78.7237 13.5483 78.9713C13.8831 79.6963 14.5617 80.3467 15.2583 80.7822C15.5901 80.9881 16.3076 80.7136 16.7919 80.5167C21.3389 78.6879 23.3657 79.4815 25.3896 84.1058" fill="black"/>
<path d="M72.7488 153.703C74.7638 153.423 76.8085 153.152 78.8533 152.856C80.7547 152.582 82.65 152.224 84.5603 152.009C87.1641 151.72 87.8666 152.376 87.8696 155.049C87.8756 157.37 87.8337 159.694 87.75 162.012C87.6603 164.527 86.7007 165.587 84.1627 165.998C81.0775 166.502 77.9894 166.98 74.8983 167.442C72.0045 167.875 72.0015 167.857 71.9536 170.885C71.8819 175.527 71.8131 180.172 71.7354 184.815C71.7235 185.534 71.7055 186.259 71.6188 186.972C71.3677 189.042 70.5307 190.063 68.5456 190.43C66.1032 190.88 63.6429 191.262 61.1766 191.536C58.791 191.802 57.951 191.029 57.9779 188.559C58.0257 183.997 58.1961 179.436 58.2888 174.871C58.5429 162.224 58.779 149.577 59.0302 136.931C59.0451 136.212 59.063 135.487 59.1497 134.774C59.4038 132.709 60.211 131.763 62.3006 131.429C71.2421 129.991 80.1896 128.589 89.1431 127.22C91.3374 126.885 92.2641 127.724 92.288 130.015C92.3149 132.497 92.2552 134.979 92.1505 137.459C92.0489 139.804 91.2597 140.782 88.892 141.194C84.2344 142.005 79.5559 142.695 74.8833 143.423C72.5396 143.79 72.5127 143.784 72.4648 146.093C72.42 148.333 72.408 150.574 72.4051 152.814C72.4051 153.032 72.5695 153.247 72.7518 153.701M90.0071 135.215C89.0355 135.299 88.2463 135.326 87.472 135.445C79.5499 136.665 71.6278 137.912 63.7027 139.129C61.051 139.538 60.8926 139.657 60.8358 142.259C60.7282 147.062 60.6534 151.869 60.5548 156.672C60.3455 166.843 60.1243 177.01 59.927 187.181C59.912 187.935 60.0436 188.693 60.1034 189.406C63.5114 189.612 63.7804 189.397 63.888 186.459C63.9718 184.218 64.0166 181.974 64.0584 179.734C64.1182 176.372 64.1511 173.006 64.2139 169.644C64.2558 167.266 64.3006 167.198 66.5068 166.789C68.0823 166.496 69.6727 166.285 71.2571 166.04C75.4573 165.39 79.6575 164.754 83.8547 164.083C85.5886 163.805 85.8397 163.492 85.8517 161.714C85.8517 161.186 85.6963 160.658 85.5677 159.825C78.5813 160.876 71.7384 161.908 64.9613 162.925C64.7191 162.43 64.5248 162.215 64.5278 162.009C64.5816 156.165 64.6474 150.32 64.7311 144.476C64.743 143.56 65.2214 142.987 66.166 142.841C66.7998 142.745 67.4276 142.605 68.0614 142.507C74.6382 141.495 81.221 140.499 87.7949 139.473C90.1147 139.109 90.303 138.843 90.2283 136.513C90.2193 136.203 90.1296 135.898 90.0131 135.221M61.2155 137.408C62.4112 137.292 63.4336 137.244 64.4411 137.089C72.2616 135.874 80.082 134.645 87.8995 133.41C90.5512 132.992 91.0713 131.865 89.7769 129.215C89.4271 129.236 89.0355 129.23 88.6528 129.287C84.9369 129.851 81.221 130.415 77.5111 130.994C72.6143 131.757 67.7235 132.569 62.8178 133.288C61.5294 133.476 60.9703 134.123 60.9883 135.337C60.9972 135.949 61.1198 136.558 61.2184 137.408M69.8879 168.645C66.5875 168.295 66.166 168.656 66.1003 171.658C65.9986 176.452 65.882 181.247 65.8013 186.041C65.7864 186.87 65.9328 187.703 65.9986 188.493C69.3767 188.693 69.7534 188.398 69.8042 185.567C69.8939 180.611 69.9537 175.656 70.0105 170.703C70.0195 170.008 69.9268 169.31 69.8849 168.648M85.8308 154.261C85.4242 154.106 85.2688 153.984 85.1342 154.005C80.9549 154.61 76.7697 155.162 72.6113 155.884C71.1226 156.144 69.1645 158.617 68.8087 160.222C69.0479 160.243 69.29 160.312 69.5202 160.276C74.408 159.524 79.2868 158.734 84.1776 158.015C85.4571 157.827 86.0131 157.209 85.9354 155.959C85.9025 155.416 85.8667 154.87 85.8308 154.261ZM70.4858 144.565C67.015 144.243 66.6384 144.55 66.5905 147.587C66.5397 150.705 66.5038 153.823 66.4859 156.941C66.4859 157.436 66.6234 157.934 66.743 158.722C69.0269 156.63 70.9372 154.792 70.4798 151.642C70.3333 150.625 70.4798 149.568 70.4858 148.527C70.4888 147.197 70.4858 145.866 70.4858 144.565Z" fill="black"/>
<path d="M59.8792 76.4685C57.6072 76.7848 55.6491 77.0473 53.6939 77.3367C52.268 77.5455 50.8509 77.8528 49.419 78.005C47.3144 78.2287 46.4086 77.4531 46.3697 75.3378C46.3249 72.9391 46.3398 70.5315 46.4504 68.1358C46.576 65.3821 47.4041 64.4125 50.1245 63.953C55.4189 63.061 60.7282 62.2584 66.0315 61.438C72.0493 60.5072 78.0701 59.5823 84.0939 58.6843C86.7097 58.2934 87.6035 59.09 87.5886 61.802C87.5766 64.0425 87.481 66.2831 87.3943 68.5236C87.2866 71.2386 86.4048 72.2589 83.7381 72.7034C81.4452 73.0853 79.1433 73.3926 76.8474 73.7536C75.9027 73.9028 74.967 74.0997 73.825 74.3085C73.7533 75.299 73.6457 76.2388 73.6277 77.1786C73.3467 89.9805 73.0807 102.785 72.8086 115.59C72.7967 116.229 72.8296 116.876 72.7638 117.512C72.5695 119.388 71.6816 120.483 69.8401 120.832C67.2422 121.321 64.6264 121.727 62.0017 122.055C60.1392 122.288 59.3231 121.542 59.1736 119.684C59.1168 118.968 59.1677 118.246 59.1796 117.524C59.4098 104.88 59.643 92.233 59.8732 79.5892C59.8911 78.6524 59.8732 77.7156 59.8732 76.4745M67.8969 67.3959C67.6757 84.7625 67.0808 101.831 66.9493 119.057C67.7475 119.057 68.2108 119.105 68.6622 119.048C70.5964 118.797 70.7848 118.58 70.8804 116.64C70.8924 116.402 70.8864 116.16 70.8924 115.921C71.2123 100.312 71.5321 84.7058 71.852 69.0965C71.9028 66.6321 72.0344 66.5039 74.5724 66.113C77.6605 65.6387 80.7427 65.1106 83.8398 64.6929C85.1402 64.5169 85.6813 63.8397 85.6544 62.6224C85.6424 62.0138 85.5109 61.4082 85.4093 60.5877C84.1148 60.716 83.0147 60.7906 81.9205 60.9427C80.2554 61.1754 78.5963 61.4708 76.9341 61.7274C68.3005 63.061 59.6639 64.3767 51.0333 65.7312C48.271 66.1637 47.7808 67.1513 48.9765 70.0124C55.1618 69.3918 61.3081 67.8762 67.8969 67.3929M61.1975 119.8C64.5965 120.107 64.9613 119.8 65.024 116.766C65.323 102.591 65.6189 88.4202 65.9089 74.2459C65.9239 73.4881 65.8491 72.7273 65.7953 71.4951C63.4755 73.6253 61.7954 75.299 61.7685 78.363C61.6549 91.4155 61.3141 104.468 61.069 117.521C61.054 118.293 61.1527 119.063 61.1945 119.8M63.7236 70.266C63.4366 70.0899 63.2991 69.9288 63.1855 69.9467C58.6654 70.612 54.1453 71.2774 49.6312 71.9814C48.7165 72.1246 48.2561 72.772 48.271 73.6939C48.283 74.3861 48.3667 75.0753 48.4295 75.9166C49.1589 75.9166 49.703 75.9822 50.2261 75.9047C52.8449 75.5258 55.4458 74.9589 58.0765 74.7441C61.0869 74.5024 62.3724 72.4558 63.7236 70.2689M85.4212 66.4382C81.6455 67.023 78.3362 67.5212 75.0298 68.0582C74.2197 68.1895 73.7712 68.7474 73.7742 69.5768C73.7742 70.3406 73.846 71.1013 73.9028 72.2112C77.5619 71.6413 80.943 71.161 84.3002 70.5404C84.7396 70.4569 85.2448 69.72 85.3764 69.2009C85.5587 68.4759 85.4212 67.6674 85.4212 66.4382Z" fill="black"/>
<path d="M253.032 46.3714C250.159 46.804 247.639 47.1949 245.119 47.5589C244.01 47.72 242.892 47.9228 241.777 47.9288C240.396 47.9377 239.597 47.2903 239.57 45.912C239.514 42.9554 239.52 39.9869 239.753 37.0422C239.905 35.0881 240.978 34.2438 243.125 33.8947C247.319 33.2145 251.519 32.591 255.717 31.9376C262.527 30.8815 269.34 29.8462 276.147 28.7573C280.108 28.1248 280.852 28.7543 280.718 32.8237C280.652 34.8226 280.634 36.8245 280.529 38.8234C280.407 41.1475 279.558 42.129 277.247 42.5437C274.407 43.0479 271.549 43.4536 268.703 43.922C268.165 44.0115 267.642 44.1846 266.945 44.3606C266.882 45.3571 266.79 46.2969 266.772 47.2396C266.497 59.964 266.231 72.6883 265.964 85.4127C265.953 86.0541 265.982 86.6985 265.926 87.334C265.755 89.2613 264.972 90.3592 263.11 90.7351C260.443 91.2751 257.743 91.6958 255.038 91.9852C253.143 92.188 252.374 91.4481 252.335 89.5C252.285 86.9402 252.386 84.3774 252.431 81.8176C252.631 70.934 252.835 60.0475 253.032 49.1639C253.047 48.3107 253.032 47.4544 253.032 46.3685M278.568 30.6279C278.018 30.5861 277.698 30.5026 277.393 30.5473C266.069 32.2926 254.748 34.0469 243.427 35.8071C243.113 35.8548 242.784 35.9085 242.5 36.0398C241.651 36.4396 241.248 37.7851 241.561 39.0143C241.842 40.1152 242.635 39.9929 243.466 39.8497C244.491 39.6707 245.522 39.5245 246.551 39.3634C250.748 38.71 254.939 38.0447 259.14 37.4062C260.748 37.1616 261.023 37.3764 261.08 38.9308C261.119 39.969 261.059 41.0102 261.038 42.0514C260.736 56.8522 260.428 71.656 260.135 86.4569C260.12 87.2952 260.213 88.1365 260.264 89.0644C260.951 89.0644 261.349 89.1091 261.734 89.0554C263.69 88.7929 263.959 88.4736 264.036 86.433C264.051 86.0332 264.048 85.6334 264.054 85.2336C264.371 69.7914 264.688 54.3491 265.011 38.9069C265.059 36.5738 265.086 36.5351 267.382 36.1651C270.467 35.6639 273.558 35.2164 276.643 34.7152C278.499 34.4109 278.813 34.0379 278.816 32.2061C278.816 31.7467 278.673 31.2842 278.565 30.6279M254.332 89.8699C257.782 89.9863 258.117 89.7028 258.177 86.8805C258.476 72.6495 258.772 58.4185 259.062 44.1876C259.077 43.4298 259.002 42.672 258.969 41.9172C256.79 43.573 254.963 45.0796 254.933 48.0631C254.796 61.2558 254.464 74.4455 254.213 87.6383C254.198 88.3394 254.285 89.0405 254.329 89.8699M256.874 40.333C256.781 40.148 256.691 39.963 256.598 39.7781C252.025 40.5 247.454 41.228 242.877 41.944C241.935 42.0902 241.448 42.6332 241.439 43.561C241.433 44.2532 241.511 44.9513 241.555 45.7807C242.509 45.7807 243.295 45.8702 244.055 45.7628C246.434 45.4317 248.793 44.8499 251.182 44.6977C254.213 44.5038 255.471 42.3975 256.871 40.336M278.577 36.5977C274.763 36.7648 271.343 37.4629 267.929 38.1491C267.534 38.2297 267.053 38.886 266.984 39.3335C266.855 40.148 267.008 41.0042 267.059 42.1738C270.742 41.592 274.123 41.1057 277.477 40.4792C277.913 40.3956 278.392 39.6527 278.535 39.1277C278.718 38.4713 278.58 37.7225 278.58 36.5947" fill="black"/>
<path d="M174.893 11.3937C175.001 8.44908 175.079 6.08322 175.174 3.72034C175.294 0.736908 175.44 0.578786 178.493 0.20884C179.273 0.11337 180.062 0.0775693 181.046 0C181.165 0.781659 181.344 1.38431 181.333 1.98398C181.198 9.59174 181.052 17.1995 180.872 24.8072C180.827 26.7793 180.57 27.0866 179.102 27.4565C176.986 27.9906 176.289 27.7579 175.288 26.0603C173.832 23.593 172.409 21.1018 170.72 18.184C170.517 19.1477 170.34 19.628 170.325 20.1113C170.254 22.3519 170.262 24.5984 170.17 26.839C170.101 28.5037 169.847 28.7424 168.274 29.0944C164.038 30.0462 163.889 29.894 164 25.6635C164.167 19.1775 164.269 12.6885 164.4 6.20256C164.412 5.64167 164.388 5.08079 164.424 4.5199C164.532 2.87305 164.863 2.44343 166.227 2.11824C168.49 1.58122 169.049 1.70354 169.949 3.20122C171.186 5.26278 172.34 7.36908 173.551 9.44555C173.85 9.95572 174.224 10.4241 174.896 11.3907" fill="black"/>
<path d="M158.547 16.973C158.547 18.8943 158.699 20.8276 158.517 22.731C158.012 28.0445 154.418 31.8334 149.294 32.6539C145.546 33.2536 142.377 31.3024 141.339 27.6835C141.055 26.69 140.837 25.6339 140.852 24.6135C140.903 21.0931 140.918 17.5607 141.223 14.0582C141.671 8.94753 145.157 5.23017 150.048 4.29338C154.275 3.48188 157.761 5.80001 158.547 10.0335C158.765 11.206 158.774 12.4202 158.822 13.6166C158.867 14.7354 158.831 15.8542 158.831 16.9759H158.547V16.973ZM152.394 18.053H152.457C152.457 16.2241 152.69 14.3565 152.394 12.5814C152.051 10.5168 149.803 10.0216 148.418 11.6028C147.922 12.1696 147.48 12.9901 147.438 13.718C147.244 17.0565 147.124 20.4069 147.139 23.7513C147.145 25.1953 147.982 26.0366 149.037 26.1649C150.308 26.3171 151.24 25.7174 151.77 24.6344C152.107 23.9423 152.314 23.1308 152.362 22.3581C152.454 20.929 152.388 19.491 152.388 18.056" fill="black"/>
<path d="M127.319 15.263C128.404 13.279 129.411 11.7515 130.096 10.0927C130.978 7.9566 132.499 7.03174 134.715 6.95417C135.653 6.92135 136.589 6.7871 137.468 6.70654C138.135 7.89992 137.405 8.59804 137.029 9.326C135.19 12.8823 133.262 16.3938 131.483 19.9798C130.969 21.0151 130.643 22.2234 130.568 23.375C130.365 26.4897 130.359 29.6163 130.245 32.737C130.171 34.7747 129.967 34.9776 127.911 35.3445C123.965 36.0486 123.988 36.0486 124.099 32.1254C124.18 29.2464 124.742 26.2242 124.072 23.5182C123.42 20.9017 121.471 18.6045 120.081 16.176C119.247 14.7141 118.35 13.291 117.558 11.8082C116.838 10.4567 117.077 9.83915 118.467 9.51694C119.713 9.22754 120.996 9.09926 122.263 8.9113C123.316 8.75318 123.887 9.37373 124.356 10.1882C125.262 11.7605 126.186 13.3268 127.322 15.266" fill="black"/>
<path d="M105.935 11.686V32.4507C107.818 32.1822 109.612 31.9346 111.403 31.6721C113.433 31.3737 113.678 31.5647 113.738 33.5278C113.743 33.6889 113.738 33.85 113.738 34.0081C113.746 37.6837 113.729 37.6807 110.123 38.2147C107.352 38.6235 104.593 39.1217 101.818 39.5304C99.7498 39.8347 99.3731 39.5095 99.409 37.4271C99.5465 29.9088 99.7019 22.3936 99.8783 14.8753C99.9261 12.7839 100.213 12.4945 102.375 12.1306C103.457 11.9486 104.551 11.8591 105.935 11.689" fill="black"/>
<path d="M129.755 206.815C130.906 206.618 131.988 206.433 133.148 206.233C133.363 206.576 133.54 206.818 133.671 207.083C134.027 207.79 134.508 208.295 135.372 207.981C136.341 207.629 136.679 206.821 136.601 205.878C136.526 204.953 135.967 204.455 134.99 204.494C134.511 204.515 134.021 204.532 133.549 204.464C131.89 204.222 130.754 203.288 130.236 201.71C128.888 197.593 132.362 193.163 136.679 193.452C138.688 193.586 140.212 194.857 140.61 196.734C140.882 198.02 140.619 198.548 139.324 198.756C138.251 198.93 136.978 199.774 136.174 198.136C136.075 197.933 135.187 197.853 134.93 198.052C134.556 198.345 134.272 198.941 134.257 199.416C134.251 199.657 134.903 199.941 135.283 200.165C135.402 200.236 135.597 200.168 135.755 200.18C139.414 200.451 141.049 202.34 140.774 205.964C140.541 209.019 138.535 211.514 135.707 212.262C132.039 213.232 129.432 211.018 129.752 206.809" fill="black"/>
<path d="M120.326 200.415V203.249C121.124 203.181 121.815 203.112 122.509 203.067C123.202 203.022 123.896 203.004 124.733 202.966V206.811C123.184 207.157 121.731 207.483 120.171 207.832C120.138 208.494 120.105 209.103 120.06 210.039C121.991 209.801 123.764 209.583 125.621 209.353C125.743 209.881 125.887 210.251 125.911 210.63C126.069 213.244 125.917 213.464 123.346 213.894C120.999 214.285 118.64 214.604 116.335 214.944C115.681 213.327 115.824 200.036 116.515 196.73C119.525 196.259 122.646 195.767 126.132 195.221C126.156 196.492 126.234 197.485 126.177 198.473C126.126 199.359 125.429 199.585 124.658 199.699C123.316 199.899 121.979 200.137 120.326 200.415Z" fill="black"/>
<path d="M180.552 204.81C180.705 203.945 180.741 203.318 180.929 202.739C182.57 197.718 184.226 192.7 185.906 187.691C186.6 185.626 186.666 185.62 189.042 185.793C190.516 188.532 194.265 200.869 194.145 202.59C190.824 203.807 190.684 203.766 189.186 201.027C188.382 201.116 187.491 201.122 186.66 201.349C186.193 201.477 185.53 201.916 185.461 202.304C185.087 204.389 183.512 204.607 181.886 204.804C181.581 204.84 181.267 204.81 180.552 204.81Z" fill="black"/>
<path d="M166.591 188.944C168.068 188.726 169.288 188.547 170.675 188.341C171.566 190.972 172.394 193.425 173.419 196.456C173.987 194.902 174.37 193.89 174.726 192.87C175.096 191.814 175.443 190.749 175.802 189.69C176.687 187.073 177.44 186.655 180.561 187.157C180.457 187.682 180.406 188.222 180.241 188.723C178.591 193.822 176.923 198.911 175.249 204.004C175.099 204.458 175.007 205.054 174.675 205.293C174.137 205.684 173.413 206.051 172.786 206.024C172.337 206.003 171.706 205.397 171.527 204.917C170.75 202.82 170.11 200.669 169.422 198.538C168.636 196.101 167.847 193.67 167.085 191.226C166.881 190.57 166.786 189.881 166.585 188.95" fill="black"/>
<path d="M105.824 202.769V205.445C107.325 205.302 108.703 205.174 110.258 205.024C110.318 205.83 110.407 206.442 110.395 207.053C110.356 209.031 110.341 209.031 108.491 209.41C107.708 209.568 106.922 209.72 106.138 209.881C106.064 209.896 105.992 209.944 105.654 210.09C105.621 211.302 105.57 212.638 105.549 213.978C105.505 216.594 105.322 216.797 102.7 216.997C102.392 217.021 102.076 216.97 101.609 216.949C101.508 216.391 101.319 215.872 101.331 215.356C101.433 210.478 101.597 205.6 101.678 200.725C101.699 199.475 102.091 198.819 103.412 198.655C106.087 198.321 108.751 197.867 111.582 197.435C111.681 198.282 111.794 198.81 111.791 199.338C111.782 201.48 111.639 201.641 109.591 201.996C108.643 202.16 107.693 202.295 106.745 202.459C106.512 202.5 106.294 202.608 105.821 202.772" fill="black"/>
<path d="M151.764 195.656C151.764 198.16 151.767 200.636 151.764 203.112C151.764 204.153 151.764 205.194 151.719 206.236C151.572 209.658 151.408 209.801 147.548 209.69C147.408 205.29 147.611 200.857 147.581 196.319H143.791V192.563C147.656 191.521 151.68 191.178 155.707 190.552C156.29 191.966 156.562 193.47 155.671 194.311C154.849 195.093 153.345 195.155 151.764 195.653" fill="black"/>
<path d="M201.497 183.58V197.25C203.236 197.08 204.833 196.921 206.588 196.748C206.647 197.703 206.689 198.401 206.734 199.096C206.818 200.352 206.286 200.982 204.979 201.14C202.537 201.429 200.109 201.847 197.401 202.253C197.308 201.34 197.174 200.669 197.189 199.997C197.275 195.531 197.389 191.065 197.509 186.599C197.58 183.982 197.592 183.979 200.145 183.642C200.522 183.594 200.908 183.603 201.497 183.58Z" fill="black"/>
<path d="M159.557 190.06C160.998 189.86 162.143 189.702 163.449 189.52C163.527 190.385 163.641 191.005 163.632 191.626C163.551 196.006 163.438 200.388 163.354 204.768C163.291 207.933 162.956 208.22 159.124 207.927C159.264 202.101 159.408 196.259 159.557 190.06Z" fill="black"/>
</g>
<defs>
<clipPath id="clip0_3214_16827">
<rect width="284" height="217" fill="white"/>
</clipPath>
</defs>
</svg>
