<svg width="170" height="170" viewBox="0 0 170 170" fill="none" xmlns="http://www.w3.org/2000/svg">
<mask id="mask0_1735_11476" style="mask-type:alpha" maskUnits="userSpaceOnUse" x="0" y="0" width="171" height="170">
<path d="M170 85.0001C170 131.944 131.944 170 85.0001 170C38.0559 170 0.00012207 131.944 0.00012207 85.0001C0.00012207 38.0559 38.0559 6.10352e-05 85.0001 6.10352e-05C131.944 6.10352e-05 170 38.0559 170 85.0001Z" fill="#0D0D0D"/>
</mask>
<g mask="url(#mask0_1735_11476)">
<path d="M170 85.0001C170 131.944 131.944 170 85.0001 170C38.0559 170 0.00012207 131.944 0.00012207 85.0001C0.00012207 38.0559 38.0559 6.10352e-05 85.0001 6.10352e-05C131.944 6.10352e-05 170 38.0559 170 85.0001Z" fill="#0D0D0D"/>
<circle cx="85.0001" cy="85.0001" r="83.0546" stroke="url(#paint0_linear_1735_11476)" stroke-opacity="0.3" stroke-width="3.89088"/>
<circle cx="84.9999" cy="85.0001" r="72.0083" stroke="url(#paint1_linear_1735_11476)" stroke-width="0.445238"/>
<circle cx="85" cy="85" r="59.811" stroke="url(#paint2_linear_1735_11476)" stroke-width="0.445238"/>
<circle cx="85.0001" cy="85.0001" r="46.4702" stroke="url(#paint3_linear_1735_11476)" stroke-width="0.445238"/>
<circle cx="85.0001" cy="85.0001" r="32.2085" fill="url(#paint4_linear_1735_11476)" fill-opacity="0.18"/>
</g>
<mask id="mask1_1735_11476" style="mask-type:alpha" maskUnits="userSpaceOnUse" x="56" y="56" width="58" height="58">
<path d="M113.8 85C113.8 100.906 100.906 113.8 85 113.8C69.0942 113.8 56.2 100.906 56.2 85C56.2 69.0942 69.0942 56.2 85 56.2C100.906 56.2 113.8 69.0942 113.8 85Z" fill="url(#paint5_linear_1735_11476)"/>
</mask>
<g mask="url(#mask1_1735_11476)">
<circle cx="84.9999" cy="85.0001" r="8.92536" stroke="url(#paint6_linear_1735_11476)" stroke-opacity="0.5" stroke-width="0.445238"/>
</g>
<defs>
<linearGradient id="paint0_linear_1735_11476" x1="0.00012207" y1="6.10352e-05" x2="170" y2="170" gradientUnits="userSpaceOnUse">
<stop stop-color="white"/>
<stop offset="0.5" stop-color="white" stop-opacity="0"/>
</linearGradient>
<linearGradient id="paint1_linear_1735_11476" x1="12.769" y1="12.7692" x2="157.231" y2="157.231" gradientUnits="userSpaceOnUse">
<stop/>
<stop offset="0.5" stop-color="white" stop-opacity="0"/>
<stop offset="1"/>
</linearGradient>
<linearGradient id="paint2_linear_1735_11476" x1="24.9663" y1="24.9664" x2="145.034" y2="145.034" gradientUnits="userSpaceOnUse">
<stop/>
<stop offset="0.5" stop-color="white" stop-opacity="0"/>
<stop offset="1"/>
</linearGradient>
<linearGradient id="paint3_linear_1735_11476" x1="38.3072" y1="38.3072" x2="131.693" y2="131.693" gradientUnits="userSpaceOnUse">
<stop/>
<stop offset="0.5" stop-color="white" stop-opacity="0"/>
<stop offset="1"/>
</linearGradient>
<linearGradient id="paint4_linear_1735_11476" x1="52.7916" y1="52.7915" x2="117.209" y2="117.209" gradientUnits="userSpaceOnUse">
<stop stop-color="white"/>
<stop offset="0.5" stop-color="white" stop-opacity="0"/>
<stop offset="1" stop-color="white"/>
</linearGradient>
<linearGradient id="paint5_linear_1735_11476" x1="56.2" y1="56.2" x2="115.478" y2="57.9819" gradientUnits="userSpaceOnUse">
<stop stop-color="#24FF89"/>
<stop offset="1" stop-color="#3DFFA2"/>
</linearGradient>
<linearGradient id="paint6_linear_1735_11476" x1="75.8519" y1="75.8521" x2="94.1479" y2="94.1481" gradientUnits="userSpaceOnUse">
<stop/>
<stop offset="0.869792" stop-opacity="0"/>
</linearGradient>
</defs>
</svg>
