<svg width="171" height="170" viewBox="0 0 171 170" fill="none" xmlns="http://www.w3.org/2000/svg">
<mask id="mask0_1735_11476" style="mask-type:alpha" maskUnits="userSpaceOnUse" x="0" y="0" width="171" height="170">
<path fill-rule="evenodd" clip-rule="evenodd" d="M85.1251 170C132.069 170 170.125 131.944 170.125 85.0001C170.125 38.0559 132.069 6.10352e-05 85.1251 6.10352e-05C38.1809 6.10352e-05 0.125122 38.0559 0.125122 85.0001C0.125122 131.944 38.1809 170 85.1251 170ZM85.1251 86.9059C86.1777 86.9059 87.0309 86.0526 87.0309 85C87.0309 83.9475 86.1777 83.0942 85.1251 83.0942C84.0725 83.0942 83.2193 83.9475 83.2193 85C83.2193 86.0526 84.0725 86.9059 85.1251 86.9059Z" fill="#0D0D0D"/>
</mask>
<g mask="url(#mask0_1735_11476)">
<path fill-rule="evenodd" clip-rule="evenodd" d="M85.1251 170C132.069 170 170.125 131.944 170.125 85.0001C170.125 38.0559 132.069 6.10352e-05 85.1251 6.10352e-05C38.1809 6.10352e-05 0.125122 38.0559 0.125122 85.0001C0.125122 131.944 38.1809 170 85.1251 170ZM85.1251 86.9059C86.1777 86.9059 87.0309 86.0526 87.0309 85C87.0309 83.9475 86.1777 83.0942 85.1251 83.0942C84.0725 83.0942 83.2193 83.9475 83.2193 85C83.2193 86.0526 84.0725 86.9059 85.1251 86.9059Z" fill="#0D0D0D"/>
<circle cx="85.1251" cy="85.0001" r="83.0546" stroke="url(#paint0_linear_1735_11476)" stroke-opacity="0.3" stroke-width="3.89088"/>
<circle cx="85.125" cy="85.0001" r="72.0083" stroke="url(#paint1_linear_1735_11476)" stroke-width="0.445238"/>
<circle cx="85.1249" cy="85" r="59.811" stroke="url(#paint2_linear_1735_11476)" stroke-width="0.445238"/>
<circle cx="85.1251" cy="85.0001" r="46.4702" stroke="url(#paint3_linear_1735_11476)" stroke-width="0.445238"/>
<circle cx="85.1251" cy="85.0001" r="32.2085" fill="url(#paint4_linear_1735_11476)" fill-opacity="0.18"/>
</g>
<mask id="mask1_1735_11476" style="mask-type:alpha" maskUnits="userSpaceOnUse" x="56" y="56" width="58" height="58">
<path fill-rule="evenodd" clip-rule="evenodd" d="M85.1251 113.8C101.031 113.8 113.925 100.906 113.925 85.0001C113.925 69.0943 101.031 56.2001 85.1251 56.2001C69.2193 56.2001 56.3251 69.0943 56.3251 85.0001C56.3251 100.906 69.2193 113.8 85.1251 113.8ZM85.1249 86.9074C86.1783 86.9074 87.0322 86.0535 87.0322 85.0002C87.0322 83.9468 86.1783 83.0929 85.1249 83.0929C84.0716 83.0929 83.2177 83.9468 83.2177 85.0002C83.2177 86.0535 84.0716 86.9074 85.1249 86.9074Z" fill="url(#paint5_linear_1735_11476)"/>
</mask>
<g mask="url(#mask1_1735_11476)">
<circle cx="85.1249" cy="85.0001" r="8.92536" stroke="url(#paint6_linear_1735_11476)" stroke-opacity="0.5" stroke-width="0.445238"/>
</g>
<defs>
<linearGradient id="paint0_linear_1735_11476" x1="0.125122" y1="6.10352e-05" x2="170.125" y2="170" gradientUnits="userSpaceOnUse">
<stop stop-color="white"/>
<stop offset="0.5" stop-color="white" stop-opacity="0"/>
</linearGradient>
<linearGradient id="paint1_linear_1735_11476" x1="12.894" y1="12.7692" x2="157.356" y2="157.231" gradientUnits="userSpaceOnUse">
<stop/>
<stop offset="0.5" stop-color="white" stop-opacity="0"/>
<stop offset="1"/>
</linearGradient>
<linearGradient id="paint2_linear_1735_11476" x1="25.0913" y1="24.9664" x2="145.159" y2="145.034" gradientUnits="userSpaceOnUse">
<stop/>
<stop offset="0.5" stop-color="white" stop-opacity="0"/>
<stop offset="1"/>
</linearGradient>
<linearGradient id="paint3_linear_1735_11476" x1="38.4322" y1="38.3072" x2="131.818" y2="131.693" gradientUnits="userSpaceOnUse">
<stop/>
<stop offset="0.5" stop-color="white" stop-opacity="0"/>
<stop offset="1"/>
</linearGradient>
<linearGradient id="paint4_linear_1735_11476" x1="52.9166" y1="52.7916" x2="117.334" y2="117.209" gradientUnits="userSpaceOnUse">
<stop stop-color="white"/>
<stop offset="0.5" stop-color="white" stop-opacity="0"/>
<stop offset="1" stop-color="white"/>
</linearGradient>
<linearGradient id="paint5_linear_1735_11476" x1="56.3251" y1="56.2001" x2="115.603" y2="57.9819" gradientUnits="userSpaceOnUse">
<stop stop-color="#24FF89"/>
<stop offset="1" stop-color="#3DFFA2"/>
</linearGradient>
<linearGradient id="paint6_linear_1735_11476" x1="75.9769" y1="75.8521" x2="94.2729" y2="94.1481" gradientUnits="userSpaceOnUse">
<stop/>
<stop offset="0.869792" stop-opacity="0"/>
</linearGradient>
</defs>
</svg>
